<?xml version="1.0" encoding="UTF-8" standalone="no"?><!DOCTYPE svg PUBLIC "-//W3C//DTD SVG 1.1//EN" "http://www.w3.org/Graphics/SVG/1.1/DTD/svg11.dtd"><svg width="100%" height="100%" viewBox="0 0 1967 221" version="1.1" xmlns="http://www.w3.org/2000/svg" xmlns:xlink="http://www.w3.org/1999/xlink" xml:space="preserve" xmlns:serif="http://www.serif.com/" style="fill-rule:evenodd;clip-rule:evenodd;stroke-linejoin:round;stroke-miterlimit:2;"><path d="M111.267,78.965c-0,-13.166 -8.375,-22.129 -22.5,-22.129l-29.6,0l-0,44l29.6,0c14.125,0 22.5,-8.687 22.5,-21.871m61.312,0.288c0,47.387 -30.183,73.954 -76.571,73.954l-36.841,0l-0,51.163c-0,9.27 -2.967,12.504 -12.513,12.504l-33.812,-0c-9.559,-0 -12.842,-3.234 -12.842,-12.504l-0,-187.321c-0,-9.271 3.283,-12.554 12.842,-12.554l82.541,-0c46.692,-0 77.196,27.22 77.196,74.758" style="fill:#030404;fill-rule:nonzero;"/><path d="M224.564,4.495l35.304,-0c8.967,-0 11.946,3.008 11.946,11.941l0,188.504c0,8.909 -2.979,11.934 -11.946,11.934l-35.304,-0c-8.987,-0 -12.029,-3.025 -12.029,-11.934l0,-188.504c0,-8.933 3.042,-11.941 12.029,-11.941" style="fill:#030404;fill-rule:nonzero;"/><path d="M477.819,17.05l0,17.987c0,5.663 -1.158,9.233 -3.842,13.113l-82.912,116.391l75.696,0c9.566,0 12.621,2.971 12.621,12.634l-0,27.195c-0,9.271 -3.055,12.505 -12.621,12.505l-141.779,-0c-9.267,-0 -12.484,-3.234 -12.484,-12.505l0,-18.312c0,-5.079 1.388,-8.883 4.146,-12.504l82.833,-116.729l-73.02,-0c-9.238,-0 -12.571,-3.309 -12.571,-12.855l-0,-26.92c-0,-9.263 3.333,-12.542 12.571,-12.542l138.8,-0c9.575,-0 12.562,3.279 12.562,12.542" style="fill:#030404;fill-rule:nonzero;"/><path d="M682.338,17.05l-0,17.987c-0,5.663 -1.225,9.233 -3.933,13.113l-82.834,116.391l75.654,0c9.567,0 12.596,2.971 12.596,12.634l0,27.195c0,9.271 -3.029,12.505 -12.596,12.505l-141.741,-0c-9.304,-0 -12.575,-3.234 -12.575,-12.505l-0,-18.312c-0,-5.079 1.491,-8.883 4.187,-12.504l82.809,-116.729l-72.93,-0c-9.304,-0 -12.575,-3.309 -12.575,-12.855l0,-26.92c0,-9.263 3.271,-12.542 12.575,-12.542l138.813,-0c9.521,-0 12.55,3.279 12.55,12.542" style="fill:#030404;fill-rule:nonzero;"/><path d="M820.77,58.96l-2.955,-0c0,-0 0.263,21.567 -5.658,41.496l-11.087,35.383l37.4,0l-11.096,-35.033c-6.004,-20.279 -6.604,-41.846 -6.604,-41.846m92.77,157.967l-32.325,-0c-15.566,-0 -20.07,-3.284 -22.395,-12.559l-6.963,-21.541l-64.571,-0l-6.846,21.541c-3.054,9.275 -6.92,12.559 -21.887,12.559l-31.408,-0c-9.25,-0 -11.067,-4.25 -8.109,-12.271l68.846,-189.692c2.946,-8.687 6.888,-10.471 15.554,-10.471l34.084,0c8.712,0 12.591,2.113 15.625,9.846l69.066,190.317c2.975,8.021 0.267,12.271 -8.671,12.271" style="fill:#030404;fill-rule:nonzero;"/><path d="M1099.76,17.05l0,26.92c0,9.546 -3.283,12.855 -12.871,12.855l-44.279,-0l0,147.545c0,9.271 -3.271,12.505 -12.896,12.505l-33.75,-0c-9.566,-0 -12.62,-3.234 -12.62,-12.505l-0,-147.545l-44.542,-0c-9.567,-0 -12.525,-3.309 -12.525,-12.855l-0,-26.92c-0,-9.263 2.958,-12.542 12.525,-12.542l148.087,-0c9.588,-0 12.871,3.279 12.871,12.542" style="fill:#030404;fill-rule:nonzero;"/><path d="M1512.92,78.965c-0,-13.166 -8.346,-22.129 -22.388,-22.129l-29.579,0l-0,44l29.579,0c14.042,0 22.388,-8.687 22.388,-21.871m61.345,0.288c0,47.387 -30.229,73.954 -76.583,73.954l-36.729,0l-0,51.163c-0,9.27 -3.046,12.504 -12.538,12.504l-33.862,-0c-9.575,-0 -12.883,-3.234 -12.883,-12.504l-0,-187.321c-0,-9.271 3.308,-12.554 12.883,-12.554l82.529,-0c46.704,-0 77.183,27.22 77.183,74.758" style="fill:#030404;fill-rule:nonzero;"/><path d="M1626.26,4.495l35.296,-0c8.987,-0 11.916,3.008 11.916,11.941l0,188.504c0,8.909 -2.929,11.934 -11.916,11.934l-35.296,-0c-8.925,-0 -11.954,-3.025 -11.954,-11.934l-0,-188.504c-0,-8.933 3.029,-11.941 11.954,-11.941" style="fill:#030404;fill-rule:nonzero;"/><path d="M1813.55,58.96l-3.025,-0c0,-0 0.288,21.567 -5.625,41.496l-11.15,35.383l37.421,0l-11.058,-35.033c-5.963,-20.279 -6.563,-41.846 -6.563,-41.846m92.65,157.967l-32.221,-0c-15.55,-0 -20.058,-3.284 -22.425,-12.559l-6.904,-21.541l-64.625,-0l-6.875,21.541c-3.05,9.275 -6.896,12.559 -21.833,12.559l-31.463,-0c-9.25,-0 -11.045,-4.25 -8.025,-12.271l68.771,-189.692c2.954,-8.687 6.942,-10.471 15.546,-10.471l34.1,0c8.763,0 12.621,2.113 15.629,9.846l69.079,190.317c2.942,8.021 0.288,12.271 -8.754,12.271" style="fill:#030404;fill-rule:nonzero;"/><path d="M1296.4,111.033l0,-0.625c0,-30.687 -22.166,-57.362 -54.637,-57.362c-32.183,-0 -53.7,26.129 -53.7,56.762l-0,0.6c-0,30.663 22.117,57.363 54.283,57.363c32.525,-0 54.054,-26.05 54.054,-56.738m-168.675,0l0,-0.625c0,-60.966 49.125,-110.408 114.621,-110.408c65.567,0 114.067,48.775 114.067,109.808l-0,0.6c-0,61.034 -49.163,110.346 -114.65,110.346c-65.525,0 -114.038,-48.737 -114.038,-109.721" style="fill:#030404;fill-rule:nonzero;"/><path d="M1929.31,35.96l5.133,-0c2.671,-0 4.504,-0.429 5.512,-1.25c0.909,-0.846 1.367,-2.317 1.367,-4.375c0,-1.863 -0.458,-3.308 -1.433,-4.067c-0.963,-0.791 -2.75,-1.158 -5.213,-1.158l-5.366,-0l-0,10.85Zm-5.459,18.079l0,-33.708l10.825,-0c4,-0 7.038,0.741 9.184,2.137c2.225,1.392 3.233,3.879 3.233,7.617c-0,2.958 -0.617,5.146 -1.788,6.671c-1.304,1.508 -2.891,2.537 -4.925,3.137l9.196,14.146l-6.45,0l-8.633,-13.287l-5.183,-0l-0,13.287l-5.459,0Zm11.292,10.679c4.704,0 9.108,-1.225 13.183,-3.583c4.221,-2.408 7.45,-5.692 9.742,-9.833c2.421,-4.155 3.646,-8.65 3.646,-13.505c-0,-4.833 -1.225,-9.312 -3.646,-13.416c-2.396,-4.129 -5.679,-7.434 -9.767,-9.779c-4.05,-2.309 -8.454,-3.53 -13.158,-3.53c-4.829,0 -9.229,1.221 -13.362,3.555c-4.1,2.37 -7.38,5.65 -9.75,9.808c-2.388,4.129 -3.559,8.608 -3.559,13.362c0,4.855 1.171,9.313 3.559,13.48c2.316,4.116 5.545,7.32 9.704,9.716c4.087,2.409 8.579,3.725 13.408,3.725m0,5.054c-5.871,0 -11.171,-1.37 -16.121,-4.262c-4.946,-2.875 -8.737,-6.758 -11.591,-11.642c-2.763,-4.896 -4.155,-10.3 -4.155,-16.071c0,-5.825 1.313,-11.241 4.155,-16.045c2.787,-4.834 6.616,-8.742 11.591,-11.5c4.975,-2.842 10.392,-4.234 16.121,-4.234c5.8,0 11.075,1.392 16.021,4.234c4.871,2.758 8.662,6.666 11.542,11.591c2.787,4.963 4.191,10.234 4.191,15.954c0,5.846 -1.404,11.225 -4.191,16.15c-2.88,5 -6.746,8.884 -11.592,11.592c-4.921,2.863 -10.213,4.233 -15.971,4.233" style="fill:#030404;fill-rule:nonzero;"/></svg>