<svg width="243" height="170" viewBox="0 0 243 170" fill="none" xmlns="http://www.w3.org/2000/svg">
<path d="M86.715 11.3299L86.0051 11.3997L0 90.8678L40.8634 170L158.193 160.154L243 79.3033L203.398 1.63575L203.024 0L86.715 11.3299ZM153.769 156.071L43.3987 165.327L6.31298 93.3151L117.012 83.957L153.769 156.071ZM9.33004 88.6044L87.856 15.692L194.683 5.27502L117.355 79.4555L9.33004 88.6044ZM237.454 78.2508L157.92 154.441L121.056 82.1627L200.59 5.95981L237.454 78.2508Z" fill="black"/>
<path d="M194.781 5.07463L117.519 79.0622L9.51709 88.1716L88.008 15.4547L194.781 5.07463Z" fill="#DC1667"/>
<path d="M116.84 83.7313L153.541 155.682L43.3619 164.925L6.34473 93.0692L116.84 83.7313Z" fill="#DC1667"/>
<path d="M200.518 5.70895L237.29 77.9763L157.955 154.142L121.183 81.868L200.518 5.70895Z" fill="#DC1667"/>
<mask id="path-5-inside-1_53_71" fill="white">
<path d="M145.702 13.0124C142.006 13.7191 137.622 15.5229 133.357 18.0941C129.092 20.6654 125.445 23.6987 123.091 26.6368C120.664 29.6673 119.888 32.2718 120.902 33.9675L123.662 38.5602C124.681 40.2582 127.341 40.7917 131.153 40.0595C134.847 39.3535 139.232 37.5488 143.498 34.9778C147.764 32.4069 151.41 29.3742 153.764 26.4352C155.005 24.8863 155.814 23.4496 156.173 22.1873C156.516 20.9804 156.447 19.9333 155.948 19.1041L153.188 14.5104C152.172 12.8174 149.512 12.2839 145.702 13.0124ZM155.346 19.4726C156.19 20.8772 155.414 23.2553 153.217 25.9974C150.913 28.8721 147.334 31.8481 143.137 34.3769C138.941 36.9057 134.639 38.6783 131.027 39.371C127.579 40.0301 125.117 39.6023 124.273 38.1977L122.538 35.3087C123.909 35.884 125.907 35.9513 128.4 35.4717C132.095 34.765 136.479 32.96 140.744 30.389C145.01 27.818 148.656 24.7854 151.01 21.8464C152.251 20.2984 153.06 18.8608 153.419 17.5985C153.515 17.2664 153.58 16.9261 153.613 16.582L155.346 19.4726ZM152.587 14.8789C153.43 16.2835 152.655 18.6616 150.457 21.4037C148.154 24.2794 144.574 27.2544 140.378 29.7832C136.182 32.312 131.881 34.0849 128.268 34.7773C124.819 35.4364 122.358 35.0089 121.515 33.6052C121.122 32.9521 121.08 32.0891 121.368 31.0763C121.699 29.9111 122.468 28.5471 123.644 27.0792C125.947 24.2044 129.526 21.2285 133.723 18.6997C137.919 16.1708 142.221 14.3983 145.833 13.7056C149.283 13.047 151.743 13.4743 152.587 14.8789Z"/>
</mask>
<path d="M145.702 13.0124C142.006 13.7191 137.622 15.5229 133.357 18.0941C129.092 20.6654 125.445 23.6987 123.091 26.6368C120.664 29.6673 119.888 32.2718 120.902 33.9675L123.662 38.5602C124.681 40.2582 127.341 40.7917 131.153 40.0595C134.847 39.3535 139.232 37.5488 143.498 34.9778C147.764 32.4069 151.41 29.3742 153.764 26.4352C155.005 24.8863 155.814 23.4496 156.173 22.1873C156.516 20.9804 156.447 19.9333 155.948 19.1041L153.188 14.5104C152.172 12.8174 149.512 12.2839 145.702 13.0124ZM155.346 19.4726C156.19 20.8772 155.414 23.2553 153.217 25.9974C150.913 28.8721 147.334 31.8481 143.137 34.3769C138.941 36.9057 134.639 38.6783 131.027 39.371C127.579 40.0301 125.117 39.6023 124.273 38.1977L122.538 35.3087C123.909 35.884 125.907 35.9513 128.4 35.4717C132.095 34.765 136.479 32.96 140.744 30.389C145.01 27.818 148.656 24.7854 151.01 21.8464C152.251 20.2984 153.06 18.8608 153.419 17.5985C153.515 17.2664 153.58 16.9261 153.613 16.582L155.346 19.4726ZM152.587 14.8789C153.43 16.2835 152.655 18.6616 150.457 21.4037C148.154 24.2794 144.574 27.2544 140.378 29.7832C136.182 32.312 131.881 34.0849 128.268 34.7773C124.819 35.4364 122.358 35.0089 121.515 33.6052C121.122 32.9521 121.08 32.0891 121.368 31.0763C121.699 29.9111 122.468 28.5471 123.644 27.0792C125.947 24.2044 129.526 21.2285 133.723 18.6997C137.919 16.1708 142.221 14.3983 145.833 13.7056C149.283 13.047 151.743 13.4743 152.587 14.8789Z" fill="black"/>
<path d="M145.702 13.0124L145.326 11.0481L145.326 11.0481L145.702 13.0124ZM123.091 26.6368L121.53 25.3864L121.53 25.3866L123.091 26.6368ZM120.902 33.9675L119.186 34.9944L119.188 34.9976L120.902 33.9675ZM123.662 38.5602L125.377 37.5309L125.376 37.5301L123.662 38.5602ZM131.153 40.0595L130.778 38.0952L130.776 38.0955L131.153 40.0595ZM153.764 26.4352L152.203 25.1848L152.203 25.185L153.764 26.4352ZM155.948 19.1041L154.233 20.134L154.234 20.1353L155.948 19.1041ZM153.188 14.5104L151.474 15.5398L151.474 15.5403L153.188 14.5104ZM155.346 19.4726L153.631 20.5012L153.632 20.5024L155.346 19.4726ZM153.217 25.9974L151.656 24.7468L151.656 24.747L153.217 25.9974ZM131.027 39.371L131.403 41.3354L131.404 41.3351L131.027 39.371ZM124.273 38.1977L122.558 39.2273L122.559 39.2274L124.273 38.1977ZM122.538 35.3087L123.313 33.4646L117.678 31.0997L120.824 36.3384L122.538 35.3087ZM128.4 35.4717L128.024 33.5073L128.022 33.5078L128.4 35.4717ZM151.01 21.8464L149.45 20.5957L149.449 20.5962L151.01 21.8464ZM153.419 17.5985L151.498 17.0428L151.495 17.0517L153.419 17.5985ZM153.613 16.582L155.328 15.5534L152.198 10.3329L151.622 16.3929L153.613 16.582ZM150.457 21.4037L148.897 20.1531L148.896 20.1534L150.457 21.4037ZM128.268 34.7773L128.643 36.7417L128.645 36.7415L128.268 34.7773ZM121.515 33.6052L123.229 32.5746L123.229 32.5744L121.515 33.6052ZM123.644 27.0792L122.083 25.8287L122.082 25.8295L123.644 27.0792ZM145.833 13.7056L145.458 11.7411L145.456 11.7414L145.833 13.7056ZM145.702 13.0124L145.326 11.0481C141.338 11.8109 136.731 13.7251 132.325 16.3814L133.357 18.0941L134.39 19.8069C138.514 17.3207 142.675 15.6274 146.077 14.9768L145.702 13.0124ZM133.357 18.0941L132.325 16.3814C127.92 19.0371 124.071 22.2152 121.53 25.3864L123.091 26.6368L124.652 27.8871C126.819 25.1822 130.265 22.2937 134.39 19.8069L133.357 18.0941ZM123.091 26.6368L121.53 25.3866C120.223 27.0183 119.26 28.6559 118.789 30.2309C118.316 31.8178 118.302 33.5164 119.186 34.9944L120.902 33.9675L122.619 32.9406C122.488 32.7229 122.355 32.2714 122.623 31.3744C122.894 30.4656 123.532 29.2857 124.652 27.8869L123.091 26.6368ZM120.902 33.9675L119.188 34.9976L121.947 39.5903L123.662 38.5602L125.376 37.5301L122.617 32.9373L120.902 33.9675ZM123.662 38.5602L121.947 39.5894C122.835 41.0692 124.342 41.8566 125.967 42.1822C127.579 42.505 129.478 42.4178 131.531 42.0236L131.153 40.0595L130.776 38.0955C129.017 38.4334 127.679 38.4456 126.753 38.2602C125.841 38.0775 125.508 37.7491 125.377 37.5309L123.662 38.5602ZM131.153 40.0595L131.529 42.0239C135.516 41.2618 140.124 39.3464 144.53 36.6907L143.498 34.9778L142.466 33.265C138.34 35.7512 134.178 37.4453 130.778 38.0952L131.153 40.0595ZM143.498 34.9778L144.53 36.6907C148.936 34.0352 152.784 30.8576 155.325 27.6854L153.764 26.4352L152.203 25.185C150.035 27.8908 146.591 30.7786 142.466 33.265L143.498 34.9778ZM153.764 26.4352L155.325 27.6856C156.66 26.019 157.639 24.3445 158.096 22.7341L156.173 22.1873L154.249 21.6406C153.989 22.5547 153.35 23.7536 152.203 25.1848L153.764 26.4352ZM156.173 22.1873L158.096 22.7341C158.539 21.1779 158.531 19.518 157.661 18.0729L155.948 19.1041L154.234 20.1353C154.362 20.3486 154.493 20.7828 154.249 21.6406L156.173 22.1873ZM155.948 19.1041L157.662 18.0742L154.903 13.4805L153.188 14.5104L151.474 15.5403L154.233 20.134L155.948 19.1041ZM153.188 14.5104L154.903 13.481C154.016 12.0026 152.509 11.2173 150.886 10.8923C149.275 10.5699 147.378 10.6558 145.326 11.0481L145.702 13.0124L146.077 14.9768C147.836 14.6406 149.174 14.629 150.1 14.8144C151.013 14.9973 151.345 15.3252 151.474 15.5398L153.188 14.5104ZM155.346 19.4726L153.632 20.5024C153.635 20.5088 153.791 20.7839 153.52 21.6132C153.258 22.4188 152.666 23.4863 151.656 24.7468L153.217 25.9974L154.777 27.248C155.965 25.7663 156.86 24.2738 157.323 22.8537C157.779 21.4573 157.901 19.841 157.061 18.4428L155.346 19.4726ZM153.217 25.9974L151.656 24.747C149.54 27.388 146.162 30.2192 142.105 32.664L143.137 34.3769L144.17 36.0898C148.505 33.477 152.287 30.3562 154.777 27.2478L153.217 25.9974ZM143.137 34.3769L142.105 32.664C138.048 35.1087 133.969 36.7705 130.651 37.4068L131.027 39.371L131.404 41.3351C135.309 40.5861 139.834 38.7027 144.17 36.0898L143.137 34.3769ZM131.027 39.371L130.652 37.4066C129.067 37.7095 127.849 37.7325 127.016 37.5878C126.159 37.4389 125.991 37.1733 125.988 37.1679L124.273 38.1977L122.559 39.2274C123.399 40.6267 124.884 41.2773 126.331 41.5286C127.802 41.7842 129.539 41.6915 131.403 41.3354L131.027 39.371ZM124.273 38.1977L125.988 37.168L124.253 34.2791L122.538 35.3087L120.824 36.3384L122.558 39.2273L124.273 38.1977ZM122.538 35.3087L121.764 37.1528C123.666 37.951 126.126 37.9459 128.778 37.4356L128.4 35.4717L128.022 33.5078C125.689 33.9568 124.152 33.817 123.313 33.4646L122.538 35.3087ZM128.4 35.4717L128.775 37.436C132.764 36.6731 137.37 34.7575 141.777 32.1019L140.744 30.389L139.712 28.6761C135.587 31.1624 131.426 32.8568 128.024 33.5073L128.4 35.4717ZM140.744 30.389L141.777 32.1019C146.183 29.4464 150.03 26.2688 152.571 23.0966L151.01 21.8464L149.449 20.5962C147.282 23.302 143.838 26.1897 139.712 28.6761L140.744 30.389ZM151.01 21.8464L152.571 23.0971C153.907 21.431 154.885 19.7555 155.343 18.1452L153.419 17.5985L151.495 17.0517C151.235 17.966 150.596 19.1659 149.45 20.5957L151.01 21.8464ZM153.419 17.5985L155.341 18.1542C155.471 17.7024 155.559 17.2393 155.604 16.7711L153.613 16.582L151.622 16.3929C151.601 16.6129 151.559 16.8305 151.498 17.0428L153.419 17.5985ZM153.613 16.582L151.898 17.6106L153.631 20.5012L155.346 19.4726L157.062 18.444L155.328 15.5534L153.613 16.582ZM152.587 14.8789L150.872 15.9087C150.876 15.9151 151.032 16.1902 150.761 17.0195C150.498 17.8251 149.907 18.8926 148.897 20.1531L150.457 21.4037L152.018 22.6543C153.205 21.1726 154.1 19.6801 154.564 18.26C155.02 16.8636 155.141 15.2473 154.301 13.8491L152.587 14.8789ZM150.457 21.4037L148.896 20.1534C146.78 22.7952 143.403 25.6254 139.346 28.0703L140.378 29.7832L141.41 31.4961C145.746 28.8834 149.527 25.7635 152.018 22.654L150.457 21.4037ZM140.378 29.7832L139.346 28.0703C135.289 30.5151 131.21 32.1771 127.892 32.8131L128.268 34.7773L128.645 36.7415C132.551 35.9927 137.075 34.1089 141.41 31.4961L140.378 29.7832ZM128.268 34.7773L127.893 32.8129C126.308 33.1159 125.09 33.1389 124.257 32.9943C123.4 32.8456 123.232 32.5801 123.229 32.5747L121.515 33.6052L119.8 34.6358C120.641 36.034 122.125 36.6841 123.572 36.9353C125.043 37.1906 126.78 37.0978 128.643 36.7417L128.268 34.7773ZM121.515 33.6052L123.229 32.5744C123.226 32.5694 123.089 32.3367 123.292 31.623L121.368 31.0763L119.444 30.5296C119.071 31.8414 119.018 33.3348 119.801 34.636L121.515 33.6052ZM121.368 31.0763L123.292 31.623C123.523 30.8093 124.12 29.6836 125.205 28.3288L123.644 27.0792L122.082 25.8295C120.816 27.4107 119.875 29.0129 119.444 30.5296L121.368 31.0763ZM123.644 27.0792L125.204 28.3296C127.321 25.6885 130.698 22.8574 134.755 20.4125L133.723 18.6997L132.69 16.9868C128.355 19.5996 124.573 22.7203 122.083 25.8287L123.644 27.0792ZM133.723 18.6997L134.755 20.4125C138.812 17.9678 142.892 16.306 146.209 15.6697L145.833 13.7056L145.456 11.7414C141.551 12.4905 137.026 14.3738 132.69 16.9868L133.723 18.6997ZM145.833 13.7056L146.207 15.6701C147.794 15.3673 149.012 15.3443 149.845 15.489C150.701 15.6377 150.869 15.9031 150.872 15.9087L152.587 14.8789L154.301 13.8491C153.461 12.45 151.977 11.7995 150.53 11.5481C149.059 11.2926 147.322 11.3853 145.458 11.7411L145.833 13.7056Z" fill="black" mask="url(#path-5-inside-1_53_71)"/>
<path d="M122.314 31.3812C122.596 30.3895 123.281 29.1422 124.411 27.7282L124.41 27.728C126.482 25.1373 129.67 22.4187 133.46 20.035L134.226 19.5622C138.095 17.2252 142.019 15.5656 145.348 14.8174L146.005 14.6803C147.66 14.3631 149.007 14.3222 149.998 14.494C150.875 14.6462 151.364 14.9415 151.615 15.2501L151.708 15.3832C151.921 15.7384 152.007 16.3506 151.689 17.3241C151.415 18.1652 150.87 19.1711 150.031 20.2924L149.653 20.7799L149.224 21.3005C147.153 23.7331 144.141 26.2493 140.603 28.4741L139.837 28.9468C135.969 31.2838 132.045 32.9427 128.716 33.6908L128.058 33.8288C126.404 34.1463 125.057 34.1869 124.066 34.0151C123.189 33.8629 122.699 33.5674 122.448 33.2589L122.355 33.1268C122.157 32.797 122.068 32.2466 122.314 31.3812Z" fill="#DC1667" stroke="black" stroke-width="2"/>
<path d="M124.602 36.7714C125.797 36.8539 127.148 36.7417 128.611 36.4589L128.612 36.4592C132.211 35.7672 136.384 34.0847 140.462 31.7193L141.276 31.237C145.61 28.6184 149.354 25.5072 151.801 22.4472L151.802 22.4475C152.738 21.2778 153.465 20.1346 153.95 19.0457L154.497 19.9575C154.709 20.3125 154.795 20.9242 154.477 21.8971C154.203 22.738 153.658 23.7435 152.819 24.8645L152.442 25.3523C150.371 27.9422 147.185 30.6613 143.396 33.0445L142.631 33.5162C138.506 36.0082 134.318 37.7292 130.857 38.3967C129.204 38.7143 127.857 38.7563 126.866 38.5845C125.989 38.4322 125.499 38.1359 125.249 37.8274L125.156 37.6943L124.602 36.7714Z" fill="#DC1667" stroke="black" stroke-width="2"/>
<mask id="path-9-inside-2_53_71" fill="white">
<path d="M67.6623 49.8035C63.9672 50.5102 59.5829 52.314 55.3179 54.8852C51.0529 57.4564 47.4058 60.4898 45.0519 63.4278C42.6245 66.4583 41.8484 69.0629 42.8629 70.7585L45.6225 75.3512C46.6416 77.0492 49.3018 77.5827 53.1142 76.8506C56.808 76.1446 61.1926 74.3398 65.4586 71.7689C69.7245 69.1979 73.3703 66.1653 75.7245 63.2263C76.9656 61.6774 77.7744 60.2407 78.1333 58.9784C78.4765 57.7714 78.4073 56.7243 77.9084 55.8952L75.1491 51.3015C74.1328 49.6085 71.4726 49.075 67.6623 49.8035ZM77.3069 56.2636C78.1505 57.6683 77.3748 60.0463 75.1772 62.7884C72.8738 65.6632 69.2944 68.6391 65.098 71.1679C60.9017 73.6968 56.5996 75.4693 52.9882 76.162C49.5393 76.8211 47.0775 76.3933 46.2339 74.9887L44.4991 72.0998C45.8698 72.6751 47.8682 72.7424 50.3605 72.2627C54.0556 71.556 58.4392 69.751 62.7052 67.18C66.9712 64.6091 70.617 61.5764 72.9712 58.6374C74.212 57.0895 75.0211 55.6518 75.38 54.3895C75.476 54.0575 75.5409 53.7171 75.5736 53.373L77.3069 56.2636ZM74.5476 51.6699C75.3912 53.0746 74.6155 55.4526 72.4179 58.1947C70.1142 61.0704 66.5351 64.0454 62.3387 66.5743C58.1424 69.1031 53.8413 70.8759 50.2289 71.5683C46.78 72.2274 44.3192 71.7999 43.4753 70.3962C43.0824 69.7431 43.0406 68.8801 43.3286 67.8673C43.6599 66.7021 44.4291 65.3382 45.6042 63.8702C47.9076 60.9955 51.487 58.0195 55.6834 55.4907C59.8798 52.9619 64.1818 51.1893 67.7932 50.4966C71.2441 49.8381 73.7039 50.2653 74.5476 51.6699Z"/>
</mask>
<path d="M67.6623 49.8035C63.9672 50.5102 59.5829 52.314 55.3179 54.8852C51.0529 57.4564 47.4058 60.4898 45.0519 63.4278C42.6245 66.4583 41.8484 69.0629 42.8629 70.7585L45.6225 75.3512C46.6416 77.0492 49.3018 77.5827 53.1142 76.8506C56.808 76.1446 61.1926 74.3398 65.4586 71.7689C69.7245 69.1979 73.3703 66.1653 75.7245 63.2263C76.9656 61.6774 77.7744 60.2407 78.1333 58.9784C78.4765 57.7714 78.4073 56.7243 77.9084 55.8952L75.1491 51.3015C74.1328 49.6085 71.4726 49.075 67.6623 49.8035ZM77.3069 56.2636C78.1505 57.6683 77.3748 60.0463 75.1772 62.7884C72.8738 65.6632 69.2944 68.6391 65.098 71.1679C60.9017 73.6968 56.5996 75.4693 52.9882 76.162C49.5393 76.8211 47.0775 76.3933 46.2339 74.9887L44.4991 72.0998C45.8698 72.6751 47.8682 72.7424 50.3605 72.2627C54.0556 71.556 58.4392 69.751 62.7052 67.18C66.9712 64.6091 70.617 61.5764 72.9712 58.6374C74.212 57.0895 75.0211 55.6518 75.38 54.3895C75.476 54.0575 75.5409 53.7171 75.5736 53.373L77.3069 56.2636ZM74.5476 51.6699C75.3912 53.0746 74.6155 55.4526 72.4179 58.1947C70.1142 61.0704 66.5351 64.0454 62.3387 66.5743C58.1424 69.1031 53.8413 70.8759 50.2289 71.5683C46.78 72.2274 44.3192 71.7999 43.4753 70.3962C43.0824 69.7431 43.0406 68.8801 43.3286 67.8673C43.6599 66.7021 44.4291 65.3382 45.6042 63.8702C47.9076 60.9955 51.487 58.0195 55.6834 55.4907C59.8798 52.9619 64.1818 51.1893 67.7932 50.4966C71.2441 49.8381 73.7039 50.2653 74.5476 51.6699Z" fill="black"/>
<path d="M67.6623 49.8035L67.2868 47.8391L67.2867 47.8392L67.6623 49.8035ZM45.0519 63.4278L43.4911 62.1775L43.4909 62.1777L45.0519 63.4278ZM42.8629 70.7585L41.1466 71.7854L41.1485 71.7886L42.8629 70.7585ZM45.6225 75.3512L47.3375 74.322L47.337 74.3211L45.6225 75.3512ZM53.1142 76.8506L52.7389 74.8862L52.7371 74.8865L53.1142 76.8506ZM75.7245 63.2263L74.1637 61.9759L74.1635 61.9761L75.7245 63.2263ZM77.9084 55.8952L76.1938 56.9251L76.1946 56.9264L77.9084 55.8952ZM75.1491 51.3015L73.4342 52.3309L73.4345 52.3314L75.1491 51.3015ZM77.3069 56.2636L75.5915 57.2922L75.5922 57.2934L77.3069 56.2636ZM75.1772 62.7884L73.6165 61.5379L73.6164 61.538L75.1772 62.7884ZM52.9882 76.162L53.3635 78.1264L53.3648 78.1261L52.9882 76.162ZM46.2339 74.9887L44.5192 76.0184L44.5192 76.0185L46.2339 74.9887ZM44.4991 72.0998L45.2733 70.2557L39.6385 67.8908L42.7844 73.1294L44.4991 72.0998ZM50.3605 72.2627L49.985 70.2984L49.9827 70.2988L50.3605 72.2627ZM72.9712 58.6374L71.4106 57.3867L71.4102 57.3872L72.9712 58.6374ZM75.38 54.3895L73.4587 53.8338L73.4561 53.8428L75.38 54.3895ZM75.5736 53.373L77.2889 52.3445L74.1585 47.1239L73.5825 53.184L75.5736 53.373ZM72.4179 58.1947L70.8572 56.9442L70.857 56.9445L72.4179 58.1947ZM50.2289 71.5683L50.6042 73.5327L50.6052 73.5325L50.2289 71.5683ZM43.4753 70.3962L45.1894 69.3657L45.1893 69.3654L43.4753 70.3962ZM45.6042 63.8702L44.0434 62.6198L44.0428 62.6205L45.6042 63.8702ZM67.7932 50.4966L67.4185 48.5321L67.4167 48.5325L67.7932 50.4966ZM67.6623 49.8035L67.2867 47.8392C63.2983 48.602 58.6915 50.5162 54.2853 53.1725L55.3179 54.8852L56.3505 56.5979C60.4744 54.1117 64.6361 52.4184 68.0378 51.7678L67.6623 49.8035ZM55.3179 54.8852L54.2853 53.1725C49.8803 55.8281 46.0318 59.0063 43.4911 62.1775L45.0519 63.4278L46.6128 64.6781C48.7799 61.9732 52.2255 59.0847 56.3505 56.5979L55.3179 54.8852ZM45.0519 63.4278L43.4909 62.1777C42.184 63.8093 41.2202 65.447 40.7502 67.022C40.2766 68.6088 40.2623 70.3075 41.1466 71.7854L42.8629 70.7585L44.5793 69.7316C44.449 69.5139 44.3155 69.0625 44.5832 68.1655C44.8545 67.2567 45.4925 66.0768 46.6129 64.6779L45.0519 63.4278ZM42.8629 70.7585L41.1485 71.7886L43.9081 76.3813L45.6225 75.3512L47.337 74.3211L44.5774 69.7284L42.8629 70.7585ZM45.6225 75.3512L43.9076 76.3805C44.7957 77.8603 46.3022 78.6477 47.928 78.9732C49.54 79.296 51.4383 79.2089 53.4912 78.8146L53.1142 76.8506L52.7371 74.8865C50.9777 75.2244 49.6397 75.2366 48.7138 75.0512C47.8016 74.8685 47.4684 74.5402 47.3375 74.322L45.6225 75.3512ZM53.1142 76.8506L53.4895 78.815C57.4771 78.0528 62.0842 76.1375 66.4909 73.4817L65.4586 71.7689L64.4263 70.056C60.3009 72.5422 56.1389 74.2363 52.7389 74.8862L53.1142 76.8506ZM65.4586 71.7689L66.4909 73.4817C70.8971 70.8263 74.7445 67.6487 77.2855 64.4765L75.7245 63.2263L74.1635 61.9761C71.9961 64.6819 68.552 67.5696 64.4263 70.056L65.4586 71.7689ZM75.7245 63.2263L77.2853 64.4767C78.6208 62.81 79.5993 61.1356 80.0571 59.5251L78.1333 58.9784L76.2095 58.4316C75.9496 59.3458 75.3104 60.5447 74.1637 61.9759L75.7245 63.2263ZM78.1333 58.9784L80.0571 59.5251C80.4995 57.969 80.4917 56.3091 79.6222 54.864L77.9084 55.8952L76.1946 56.9264C76.3229 57.1396 76.4534 57.5738 76.2095 58.4316L78.1333 58.9784ZM77.9084 55.8952L79.623 54.8653L76.8637 50.2716L75.1491 51.3015L73.4345 52.3314L76.1938 56.9251L77.9084 55.8952ZM75.1491 51.3015L76.8639 50.272C75.9765 48.7937 74.4695 48.0084 72.8463 47.6834C71.2357 47.3609 69.3386 47.4468 67.2868 47.8391L67.6623 49.8035L68.0377 51.7678C69.7962 51.4316 71.1344 51.42 72.0606 51.6054C72.974 51.7883 73.3054 52.1163 73.4342 52.3309L75.1491 51.3015ZM77.3069 56.2636L75.5922 57.2934C75.5961 57.2999 75.7518 57.5749 75.4811 58.4042C75.2182 59.2099 74.6267 60.2774 73.6165 61.5379L75.1772 62.7884L76.7379 64.039C77.9253 62.5574 78.8205 61.0648 79.2839 59.6447C79.7396 58.2483 79.8612 56.632 79.0215 55.2339L77.3069 56.2636ZM75.1772 62.7884L73.6164 61.538C71.5002 64.1791 68.1227 67.0102 64.0658 69.455L65.098 71.1679L66.1303 72.8808C70.4661 70.268 74.2474 67.1473 76.738 64.0389L75.1772 62.7884ZM65.098 71.1679L64.0658 69.455C60.009 71.8998 55.9292 73.5616 52.6116 74.1979L52.9882 76.162L53.3648 78.1261C57.27 77.3771 61.7943 75.4938 66.1303 72.8808L65.098 71.1679ZM52.9882 76.162L52.6129 74.1976C51.0278 74.5006 49.8095 74.5235 48.9766 74.3788C48.1196 74.23 47.9518 73.9643 47.9485 73.9589L46.2339 74.9887L44.5192 76.0185C45.3596 77.4177 46.8445 78.0683 48.2915 78.3197C49.7626 78.5753 51.4997 78.4826 53.3635 78.1264L52.9882 76.162ZM46.2339 74.9887L47.9486 73.959L46.2138 71.0701L44.4991 72.0998L42.7844 73.1294L44.5192 76.0184L46.2339 74.9887ZM44.4991 72.0998L43.7249 73.9439C45.6267 74.7421 48.0867 74.7369 50.7384 74.2266L50.3605 72.2627L49.9827 70.2988C47.6496 70.7478 46.1129 70.6081 45.2733 70.2557L44.4991 72.0998ZM50.3605 72.2627L50.7361 74.227C54.7249 73.4642 59.331 71.5485 63.7375 68.8929L62.7052 67.18L61.6729 65.4672C57.5474 67.9534 53.3864 69.6478 49.985 70.2984L50.3605 72.2627ZM62.7052 67.18L63.7375 68.8929C68.1438 66.2374 71.9912 63.0598 74.5322 59.8876L72.9712 58.6374L71.4102 57.3872C69.2428 60.093 65.7986 62.9808 61.6729 65.4672L62.7052 67.18ZM72.9712 58.6374L74.5317 59.8881C75.8673 58.222 76.8459 56.5466 77.3038 54.9362L75.38 54.3895L73.4561 53.8428C73.1962 54.7571 72.5567 55.9569 71.4106 57.3867L72.9712 58.6374ZM75.38 54.3895L77.3012 54.9452C77.4319 54.4934 77.5201 54.0303 77.5647 53.5621L75.5736 53.373L73.5825 53.184C73.5616 53.404 73.5201 53.6215 73.4587 53.8338L75.38 54.3895ZM75.5736 53.373L73.8582 54.4016L75.5915 57.2922L77.3069 56.2636L79.0222 55.2351L77.2889 52.3445L75.5736 53.373ZM74.5476 51.6699L72.8329 52.6997C72.8368 52.7062 72.9924 52.9812 72.7218 53.8105C72.4589 54.6162 71.8674 55.6837 70.8572 56.9442L72.4179 58.1947L73.9786 59.4453C75.166 57.9637 76.0612 56.4711 76.5246 55.051C76.9803 53.6546 77.1019 52.0383 76.2622 50.6402L74.5476 51.6699ZM72.4179 58.1947L70.857 56.9445C68.7406 59.5863 65.3636 62.4164 61.3065 64.8614L62.3387 66.5743L63.371 68.2871C67.7066 65.6744 71.4878 62.5546 73.9788 59.445L72.4179 58.1947ZM62.3387 66.5743L61.3065 64.8614C57.2495 67.3062 53.1708 68.9681 49.8525 69.6041L50.2289 71.5683L50.6052 73.5325C54.5118 72.7837 59.0352 70.9 63.371 68.2871L62.3387 66.5743ZM50.2289 71.5683L49.8536 69.6039C48.2684 69.9069 47.0503 69.9299 46.2175 69.7854C45.3606 69.6366 45.1927 69.3711 45.1894 69.3657L43.4753 70.3962L41.7611 71.4268C42.6017 72.8251 44.0861 73.4751 45.5329 73.7263C47.0037 73.9816 48.7405 73.8889 50.6042 73.5327L50.2289 71.5683ZM43.4753 70.3962L45.1893 69.3654C45.1863 69.3604 45.0495 69.1278 45.2524 68.4141L43.3286 67.8673L41.4048 67.3206C41.0318 68.6325 40.9786 70.1258 41.7612 71.4271L43.4753 70.3962ZM43.3286 67.8673L45.2524 68.4141C45.4838 67.6003 46.0812 66.4746 47.1656 65.1199L45.6042 63.8702L44.0428 62.6205C42.7771 64.2017 41.8359 65.804 41.4048 67.3206L43.3286 67.8673ZM45.6042 63.8702L47.165 65.1206C49.2812 62.4796 52.6587 59.6484 56.7156 57.2036L55.6834 55.4907L54.6511 53.7778C50.3154 56.3906 46.5341 59.5114 44.0434 62.6198L45.6042 63.8702ZM55.6834 55.4907L56.7156 57.2036C60.7724 54.7589 64.8522 53.0971 68.1698 52.4608L67.7932 50.4966L67.4167 48.5325C63.5114 49.2815 58.9871 51.1649 54.6511 53.7778L55.6834 55.4907ZM67.7932 50.4966L68.168 52.4611C69.7546 52.1583 70.9729 52.1354 71.8056 52.28C72.662 52.4288 72.8296 52.6942 72.8329 52.6997L74.5476 51.6699L76.2622 50.6402C75.4219 49.2411 73.9377 48.5905 72.4906 48.3391C71.0198 48.0836 69.2828 48.1764 67.4185 48.5321L67.7932 50.4966Z" fill="black" mask="url(#path-9-inside-2_53_71)"/>
<path d="M44.275 68.1722C44.557 67.1805 45.2414 65.9332 46.3715 64.5193L46.3705 64.519C48.4431 61.9283 51.6308 59.2097 55.4209 56.826L56.1868 56.3533C60.0553 54.0163 63.9797 52.3566 67.3088 51.6084L67.966 51.4713C69.6207 51.1541 70.9672 51.1132 71.9582 51.285C72.8354 51.4372 73.325 51.7325 73.5758 52.0412L73.6689 52.1742C73.8817 52.5294 73.9677 53.1416 73.6501 54.1151C73.3757 54.9562 72.8306 55.9621 71.9919 57.0835L71.6138 57.5709L71.1845 58.0916C69.1135 60.5242 66.1015 63.0404 62.5641 65.2651L61.7982 65.7378C57.9298 68.0749 54.006 69.7338 50.6765 70.4818L50.0189 70.6198C48.365 70.9374 47.018 70.9779 46.0268 70.8061C45.1492 70.6539 44.6599 70.3585 44.4092 70.05L44.3158 69.9178C44.1179 69.588 44.029 69.0376 44.275 68.1722Z" fill="#DC1667" stroke="black" stroke-width="2"/>
<path d="M46.5626 73.5625C47.7573 73.6449 49.1089 73.5327 50.5714 73.2499L50.5723 73.2502C54.1715 72.5582 58.3444 70.8757 62.4228 68.5103L63.2371 68.028C67.5706 65.4094 71.3147 62.2983 73.7618 59.2383L73.7628 59.2385C74.6987 58.0689 75.4259 56.9256 75.9107 55.8367L76.4576 56.7485C76.6701 57.1035 76.7555 57.7152 76.4381 58.6882C76.1638 59.529 75.6186 60.5345 74.7802 61.6556L74.4029 62.1433C72.3313 64.7332 69.1454 67.4523 65.3569 69.8355L64.5912 70.3073C60.4671 72.7992 56.2789 74.5203 52.8175 75.1877C51.1643 75.5053 49.8178 75.5474 48.8269 75.3755C47.9495 75.2233 47.4601 74.927 47.2096 74.6184L47.1165 74.4854L46.5626 73.5625Z" fill="#DC1667" stroke="black" stroke-width="2"/>
<mask id="path-13-inside-3_53_71" fill="white">
<path d="M98.0566 15.6692C94.3615 16.3759 89.9772 18.1796 85.7122 20.7509C81.4472 23.3221 77.8001 26.3554 75.4462 29.2935C73.0188 32.324 72.2427 34.9285 73.2572 36.6242L76.0168 41.2169C77.0359 42.9149 79.6961 43.4484 83.5085 42.7163C87.2023 42.0103 91.5869 40.2055 95.8528 37.6346C100.119 35.0636 103.765 32.031 106.119 29.0919C107.36 27.543 108.169 26.1063 108.528 24.844C108.871 23.6371 108.802 22.59 108.303 21.7608L105.543 17.1671C104.527 15.4741 101.867 14.9406 98.0566 15.6692ZM107.701 22.1293C108.545 23.534 107.769 25.912 105.572 28.6541C103.268 31.5288 99.6887 34.5048 95.4923 37.0336C91.296 39.5624 86.9939 41.335 83.3825 42.0277C79.9336 42.6868 77.4718 42.259 76.6282 40.8544L74.8934 37.9654C76.2641 38.5408 78.2625 38.6081 80.7548 38.1284C84.4499 37.4217 88.8335 35.6167 93.0995 33.0457C97.3655 30.4748 101.011 27.4421 103.365 24.5031C104.606 22.9551 105.415 21.5175 105.774 20.2552C105.87 19.9231 105.935 19.5828 105.968 19.2387L107.701 22.1293ZM104.942 17.5356C105.785 18.9403 105.01 21.3183 102.812 24.0604C100.508 26.9361 96.9294 29.9111 92.733 32.4399C88.5367 34.9688 84.2356 36.7416 80.6232 37.434C77.1743 38.0931 74.7134 37.6656 73.8696 36.2619C73.4767 35.6088 73.4349 34.7458 73.7229 33.733C74.0541 32.5678 74.8234 31.2039 75.9985 29.7359C78.3019 26.8612 81.8813 23.8852 86.0777 21.3564C90.274 18.8275 94.5761 17.055 98.1875 16.3623C101.638 15.7037 104.098 16.131 104.942 17.5356Z"/>
</mask>
<path d="M98.0566 15.6692C94.3615 16.3759 89.9772 18.1796 85.7122 20.7509C81.4472 23.3221 77.8001 26.3554 75.4462 29.2935C73.0188 32.324 72.2427 34.9285 73.2572 36.6242L76.0168 41.2169C77.0359 42.9149 79.6961 43.4484 83.5085 42.7163C87.2023 42.0103 91.5869 40.2055 95.8528 37.6346C100.119 35.0636 103.765 32.031 106.119 29.0919C107.36 27.543 108.169 26.1063 108.528 24.844C108.871 23.6371 108.802 22.59 108.303 21.7608L105.543 17.1671C104.527 15.4741 101.867 14.9406 98.0566 15.6692ZM107.701 22.1293C108.545 23.534 107.769 25.912 105.572 28.6541C103.268 31.5288 99.6887 34.5048 95.4923 37.0336C91.296 39.5624 86.9939 41.335 83.3825 42.0277C79.9336 42.6868 77.4718 42.259 76.6282 40.8544L74.8934 37.9654C76.2641 38.5408 78.2625 38.6081 80.7548 38.1284C84.4499 37.4217 88.8335 35.6167 93.0995 33.0457C97.3655 30.4748 101.011 27.4421 103.365 24.5031C104.606 22.9551 105.415 21.5175 105.774 20.2552C105.87 19.9231 105.935 19.5828 105.968 19.2387L107.701 22.1293ZM104.942 17.5356C105.785 18.9403 105.01 21.3183 102.812 24.0604C100.508 26.9361 96.9294 29.9111 92.733 32.4399C88.5367 34.9688 84.2356 36.7416 80.6232 37.434C77.1743 38.0931 74.7134 37.6656 73.8696 36.2619C73.4767 35.6088 73.4349 34.7458 73.7229 33.733C74.0541 32.5678 74.8234 31.2039 75.9985 29.7359C78.3019 26.8612 81.8813 23.8852 86.0777 21.3564C90.274 18.8275 94.5761 17.055 98.1875 16.3623C101.638 15.7037 104.098 16.131 104.942 17.5356Z" fill="black"/>
<path d="M98.0566 15.6692L97.6811 13.7048L97.681 13.7048L98.0566 15.6692ZM75.4462 29.2935L73.8853 28.0431L73.8852 28.0433L75.4462 29.2935ZM73.2572 36.6242L71.5408 37.6511L71.5428 37.6543L73.2572 36.6242ZM76.0168 41.2169L77.7318 40.1876L77.7312 40.1868L76.0168 41.2169ZM83.5085 42.7163L83.1331 40.7519L83.1314 40.7522L83.5085 42.7163ZM106.119 29.0919L104.558 27.8415L104.558 27.8418L106.119 29.0919ZM108.303 21.7608L106.588 22.7907L106.589 22.792L108.303 21.7608ZM105.543 17.1671L103.829 18.1966L103.829 18.197L105.543 17.1671ZM107.701 22.1293L105.986 23.1579L105.987 23.1591L107.701 22.1293ZM105.572 28.6541L104.011 27.4035L104.011 27.4037L105.572 28.6541ZM83.3825 42.0277L83.7578 43.9921L83.7591 43.9918L83.3825 42.0277ZM76.6282 40.8544L74.9135 41.8841L74.9135 41.8842L76.6282 40.8544ZM74.8934 37.9654L75.6676 36.1213L70.0328 33.7564L73.1786 38.9951L74.8934 37.9654ZM80.7548 38.1284L80.3793 36.164L80.377 36.1645L80.7548 38.1284ZM103.365 24.5031L101.805 23.2524L101.804 23.2529L103.365 24.5031ZM105.774 20.2552L103.853 19.6995L103.85 19.7085L105.774 20.2552ZM105.968 19.2387L107.683 18.2101L104.553 12.9896L103.977 19.0497L105.968 19.2387ZM102.812 24.0604L101.252 22.8098L101.251 22.8102L102.812 24.0604ZM80.6232 37.434L80.9984 39.3984L80.9995 39.3982L80.6232 37.434ZM73.8696 36.2619L75.5837 35.2314L75.5836 35.2311L73.8696 36.2619ZM75.9985 29.7359L74.4377 28.4855L74.4371 28.4862L75.9985 29.7359ZM98.1875 16.3623L97.8128 14.3978L97.8109 14.3982L98.1875 16.3623ZM98.0566 15.6692L97.681 13.7048C93.6926 14.4676 89.0858 16.3818 84.6796 19.0381L85.7122 20.7509L86.7447 22.4636C90.8686 19.9774 95.0304 18.2841 98.4321 17.6335L98.0566 15.6692ZM85.7122 20.7509L84.6796 19.0381C80.2746 21.6938 76.426 24.872 73.8853 28.0431L75.4462 29.2935L77.0071 30.5438C79.1742 27.8389 82.6197 24.9504 86.7447 22.4636L85.7122 20.7509ZM75.4462 29.2935L73.8852 28.0433C72.5782 29.675 71.6145 31.3126 71.1445 32.8877C70.6709 34.4745 70.6566 36.1731 71.5408 37.6511L73.2572 36.6242L74.9736 35.5973C74.8433 35.3796 74.7098 34.9281 74.9775 34.0311C75.2488 33.1223 75.8868 31.9425 77.0072 30.5436L75.4462 29.2935ZM73.2572 36.6242L71.5428 37.6543L74.3024 42.247L76.0168 41.2169L77.7312 40.1868L74.9717 35.5941L73.2572 36.6242ZM76.0168 41.2169L74.3018 42.2462C75.19 43.7259 76.6965 44.5133 78.3222 44.8389C79.9343 45.1617 81.8326 45.0746 83.8855 44.6803L83.5085 42.7163L83.1314 40.7522C81.372 41.0901 80.034 41.1023 79.1081 40.9169C78.1958 40.7342 77.8627 40.4059 77.7318 40.1876L76.0168 41.2169ZM83.5085 42.7163L83.8838 44.6806C87.8714 43.9185 92.4785 42.0031 96.8851 39.3474L95.8528 37.6346L94.8205 35.9217C90.6952 38.4079 86.5332 40.102 83.1331 40.7519L83.5085 42.7163ZM95.8528 37.6346L96.8851 39.3474C101.291 36.6919 105.139 33.5144 107.68 30.3421L106.119 29.0919L104.558 27.8418C102.39 30.5475 98.9462 33.4353 94.8205 35.9217L95.8528 37.6346ZM106.119 29.0919L107.68 30.3424C109.015 28.6757 109.994 27.0012 110.451 25.3908L108.528 24.844L106.604 24.2973C106.344 25.2115 105.705 26.4104 104.558 27.8415L106.119 29.0919ZM108.528 24.844L110.451 25.3908C110.894 23.8347 110.886 22.1747 110.016 20.7296L108.303 21.7608L106.589 22.792C106.717 23.0053 106.848 23.4395 106.604 24.2973L108.528 24.844ZM108.303 21.7608L110.017 20.731L107.258 16.1373L105.543 17.1671L103.829 18.197L106.588 22.7907L108.303 21.7608ZM105.543 17.1671L107.258 16.1377C106.371 14.6593 104.864 13.8741 103.241 13.5491C101.63 13.2266 99.7329 13.3125 97.6811 13.7048L98.0566 15.6692L98.432 17.6335C100.191 17.2973 101.529 17.2857 102.455 17.4711C103.368 17.654 103.7 17.982 103.829 18.1966L105.543 17.1671ZM107.701 22.1293L105.987 23.1591C105.99 23.1656 106.146 23.4406 105.875 24.2699C105.613 25.0755 105.021 26.1431 104.011 27.4035L105.572 28.6541L107.132 29.9047C108.32 28.423 109.215 26.9305 109.678 25.5104C110.134 24.114 110.256 22.4977 109.416 21.0995L107.701 22.1293ZM105.572 28.6541L104.011 27.4037C101.895 30.0447 98.517 32.8759 94.4601 35.3207L95.4923 37.0336L96.5246 38.7465C100.86 36.1337 104.642 33.0129 107.132 29.9045L105.572 28.6541ZM95.4923 37.0336L94.4601 35.3207C90.4033 37.7654 86.3235 39.4272 83.0059 40.0636L83.3825 42.0277L83.7591 43.9918C87.6643 43.2428 92.1886 41.3595 96.5246 38.7465L95.4923 37.0336ZM83.3825 42.0277L83.0072 40.0633C81.4221 40.3662 80.2038 40.3892 79.3709 40.2445C78.5139 40.0956 78.3461 39.83 78.3428 39.8246L76.6282 40.8544L74.9135 41.8842C75.7539 43.2834 77.2388 43.934 78.6858 44.1854C80.1569 44.4409 81.894 44.3483 83.7577 43.9921L83.3825 42.0277ZM76.6282 40.8544L78.3429 39.8247L76.6081 36.9358L74.8934 37.9654L73.1786 38.9951L74.9135 41.8841L76.6282 40.8544ZM74.8934 37.9654L74.1191 39.8096C76.021 40.6078 78.481 40.6026 81.1327 40.0923L80.7548 38.1284L80.377 36.1645C78.0439 36.6135 76.5072 36.4738 75.6676 36.1213L74.8934 37.9654ZM80.7548 38.1284L81.1304 40.0927C85.1192 39.3298 89.7253 37.4142 94.1318 34.7586L93.0995 33.0457L92.0672 31.3328C87.9417 33.8191 83.7807 35.5135 80.3793 36.164L80.7548 38.1284ZM93.0995 33.0457L94.1318 34.7586C98.538 32.1031 102.385 28.9255 104.926 25.7533L103.365 24.5031L101.804 23.2529C99.6371 25.9587 96.1929 28.8464 92.0672 31.3328L93.0995 33.0457ZM103.365 24.5031L104.926 25.7538C106.262 24.0877 107.24 22.4122 107.698 20.8019L105.774 20.2552L103.85 19.7085C103.59 20.6228 102.951 21.8226 101.805 23.2524L103.365 24.5031ZM105.774 20.2552L107.695 20.8109C107.826 20.3591 107.914 19.896 107.959 19.4278L105.968 19.2387L103.977 19.0497C103.956 19.2696 103.914 19.4872 103.853 19.6995L105.774 20.2552ZM105.968 19.2387L104.252 20.2673L105.986 23.1579L107.701 22.1293L109.417 21.1007L107.683 18.2101L105.968 19.2387ZM104.942 17.5356L103.227 18.5654C103.231 18.5719 103.387 18.8469 103.116 19.6762C102.853 20.4818 102.262 21.5494 101.252 22.8098L102.812 24.0604L104.373 25.311C105.56 23.8293 106.455 22.3368 106.919 20.9167C107.375 19.5203 107.496 17.904 106.656 16.5058L104.942 17.5356ZM102.812 24.0604L101.251 22.8102C99.1349 25.4519 95.7579 28.2821 91.7008 30.727L92.733 32.4399L93.7653 34.1528C98.1009 31.5401 101.882 28.4203 104.373 25.3107L102.812 24.0604ZM92.733 32.4399L91.7008 30.727C87.6438 33.1718 83.5651 34.8338 80.2468 35.4698L80.6232 37.434L80.9995 39.3982C84.9061 38.6494 89.4295 36.7657 93.7653 34.1528L92.733 32.4399ZM80.6232 37.434L80.2479 35.4696C78.6627 35.7726 77.4446 35.7956 76.6118 35.651C75.7549 35.5023 75.587 35.2368 75.5837 35.2314L73.8696 36.2619L72.1554 37.2925C72.996 38.6908 74.4804 39.3408 75.9272 39.592C77.398 39.8473 79.1348 39.7546 80.9984 39.3984L80.6232 37.434ZM73.8696 36.2619L75.5836 35.2311C75.5805 35.2261 75.4438 34.9934 75.6467 34.2797L73.7229 33.733L71.799 33.1863C71.4261 34.4981 71.3729 35.9915 72.1555 37.2928L73.8696 36.2619ZM73.7229 33.733L75.6467 34.2797C75.878 33.466 76.4754 32.3403 77.5599 30.9856L75.9985 29.7359L74.4371 28.4862C73.1714 30.0674 72.2302 31.6697 71.799 33.1863L73.7229 33.733ZM75.9985 29.7359L77.5593 30.9863C79.6755 28.3453 83.053 25.5141 87.1099 23.0693L86.0777 21.3564L85.0454 19.6435C80.7097 22.2563 76.9284 25.3771 74.4377 28.4855L75.9985 29.7359ZM86.0777 21.3564L87.1099 23.0693C91.1667 20.6246 95.2465 18.9628 98.5641 18.3264L98.1875 16.3623L97.8109 14.3982C93.9057 15.1472 89.3814 17.0305 85.0454 19.6435L86.0777 21.3564ZM98.1875 16.3623L98.5623 18.3268C100.149 18.024 101.367 18.001 102.2 18.1457C103.056 18.2945 103.224 18.5598 103.227 18.5654L104.942 17.5356L106.656 16.5058C105.816 15.1068 104.332 14.4562 102.885 14.2048C101.414 13.9493 99.6771 14.042 97.8128 14.3978L98.1875 16.3623Z" fill="black" mask="url(#path-13-inside-3_53_71)"/>
<path d="M74.6693 34.0379C74.9513 33.0462 75.6357 31.7989 76.7658 30.3849L76.7648 30.3847C78.8373 27.794 82.0251 25.0754 85.8152 22.6917L86.5811 22.219C90.4495 19.8819 94.374 18.2223 97.703 17.4741L98.3603 17.337C100.015 17.0198 101.361 16.9789 102.352 17.1507C103.23 17.3029 103.719 17.5982 103.97 17.9069L104.063 18.0399C104.276 18.3951 104.362 19.0073 104.044 19.9808C103.77 20.8219 103.225 21.8278 102.386 22.9492L102.008 23.4366L101.579 23.9573C99.5078 26.3898 96.4958 28.9061 92.9583 31.1308L92.1925 31.6035C88.324 33.9405 84.4003 35.5994 81.0708 36.3475L80.4132 36.4855C78.7593 36.8031 77.4122 36.8436 76.421 36.6718C75.5435 36.5196 75.0542 36.2242 74.8035 35.9156L74.7101 35.7835C74.5122 35.4537 74.4232 34.9033 74.6693 34.0379Z" fill="#DC1667" stroke="black" stroke-width="2"/>
<path d="M76.9569 39.4281C78.1516 39.5106 79.5032 39.3984 80.9657 39.1156L80.9666 39.1159C84.5658 38.4239 88.7387 36.7414 92.8171 34.376L93.6314 33.8937C97.9649 31.2751 101.709 28.1639 104.156 25.1039L104.157 25.1042C105.093 23.9345 105.82 22.7913 106.305 21.7024L106.852 22.6142C107.064 22.9692 107.15 23.5809 106.832 24.5538C106.558 25.3947 106.013 26.4002 105.174 27.5213L104.797 28.009C102.726 30.5989 99.5397 33.318 95.7511 35.7012L94.9855 36.1729C90.8614 38.6649 86.6732 40.386 83.2118 41.0534C81.5585 41.371 80.2121 41.413 79.2212 41.2412C78.3438 41.089 77.8544 40.7927 77.6039 40.4841L77.5108 40.351L76.9569 39.4281Z" fill="#DC1667" stroke="black" stroke-width="2"/>
<mask id="path-17-inside-4_53_71" fill="white">
<path d="M115.247 45.9975C111.552 46.7042 107.168 48.508 102.903 51.0792C98.6378 53.6504 94.9908 56.6838 92.6369 59.6218C90.2095 62.6523 89.4334 65.2569 90.4479 66.9525L93.2075 71.5453C94.2266 73.2432 96.8868 73.7768 100.699 73.0446C104.393 72.3386 108.778 70.5339 113.044 67.9629C117.309 65.392 120.955 62.3593 123.309 59.4203C124.551 57.8714 125.359 56.4347 125.718 55.1724C126.061 53.9654 125.992 52.9184 125.493 52.0892L122.734 47.4955C121.718 45.8025 119.058 45.269 115.247 45.9975ZM124.892 52.4577C125.735 53.8623 124.96 56.2403 122.762 58.9825C120.459 61.8572 116.879 64.8331 112.683 67.362C108.487 69.8908 104.185 71.6634 100.573 72.356C97.1243 73.0152 94.6625 72.5874 93.8188 71.1827L92.084 68.2938C93.4548 68.8691 95.4531 68.9364 97.9455 68.4567C101.641 67.75 106.024 65.945 110.29 63.3741C114.556 60.8031 118.202 57.7705 120.556 54.8315C121.797 53.2835 122.606 51.8459 122.965 50.5835C123.061 50.2515 123.126 49.9112 123.159 49.5671L124.892 52.4577ZM122.133 47.864C122.976 49.2686 122.2 51.6466 120.003 54.3888C117.699 57.2645 114.12 60.2395 109.924 62.7683C105.727 65.2971 101.426 67.0699 97.8138 67.7624C94.3649 68.4215 91.9041 67.994 91.0602 66.5903C90.6674 65.9371 90.6256 65.0741 90.9135 64.0614C91.2448 62.8962 92.0141 61.5322 93.1892 60.0642C95.4926 57.1895 99.072 54.2135 103.268 51.6847C107.465 49.1559 111.767 47.3833 115.378 46.6907C118.829 46.0321 121.289 46.4593 122.133 47.864Z"/>
</mask>
<path d="M115.247 45.9975C111.552 46.7042 107.168 48.508 102.903 51.0792C98.6378 53.6504 94.9908 56.6838 92.6369 59.6218C90.2095 62.6523 89.4334 65.2569 90.4479 66.9525L93.2075 71.5453C94.2266 73.2432 96.8868 73.7768 100.699 73.0446C104.393 72.3386 108.778 70.5339 113.044 67.9629C117.309 65.392 120.955 62.3593 123.309 59.4203C124.551 57.8714 125.359 56.4347 125.718 55.1724C126.061 53.9654 125.992 52.9184 125.493 52.0892L122.734 47.4955C121.718 45.8025 119.058 45.269 115.247 45.9975ZM124.892 52.4577C125.735 53.8623 124.96 56.2403 122.762 58.9825C120.459 61.8572 116.879 64.8331 112.683 67.362C108.487 69.8908 104.185 71.6634 100.573 72.356C97.1243 73.0152 94.6625 72.5874 93.8188 71.1827L92.084 68.2938C93.4548 68.8691 95.4531 68.9364 97.9455 68.4567C101.641 67.75 106.024 65.945 110.29 63.3741C114.556 60.8031 118.202 57.7705 120.556 54.8315C121.797 53.2835 122.606 51.8459 122.965 50.5835C123.061 50.2515 123.126 49.9112 123.159 49.5671L124.892 52.4577ZM122.133 47.864C122.976 49.2686 122.2 51.6466 120.003 54.3888C117.699 57.2645 114.12 60.2395 109.924 62.7683C105.727 65.2971 101.426 67.0699 97.8138 67.7624C94.3649 68.4215 91.9041 67.994 91.0602 66.5903C90.6674 65.9371 90.6256 65.0741 90.9135 64.0614C91.2448 62.8962 92.0141 61.5322 93.1892 60.0642C95.4926 57.1895 99.072 54.2135 103.268 51.6847C107.465 49.1559 111.767 47.3833 115.378 46.6907C118.829 46.0321 121.289 46.4593 122.133 47.864Z" fill="black"/>
<path d="M115.247 45.9975L114.872 44.0332L114.872 44.0332L115.247 45.9975ZM92.6369 59.6218L91.076 58.3715L91.0759 58.3717L92.6369 59.6218ZM90.4479 66.9525L88.7315 67.9794L88.7334 67.9827L90.4479 66.9525ZM93.2075 71.5453L94.9224 70.516L94.9219 70.5151L93.2075 71.5453ZM100.699 73.0446L100.324 71.0802L100.322 71.0806L100.699 73.0446ZM123.309 59.4203L121.749 58.1699L121.748 58.1701L123.309 59.4203ZM125.493 52.0892L123.779 53.1191L123.78 53.1204L125.493 52.0892ZM122.734 47.4955L121.019 48.5249L121.019 48.5254L122.734 47.4955ZM124.892 52.4577L123.176 53.4862L123.177 53.4875L124.892 52.4577ZM122.762 58.9825L121.201 57.7319L121.201 57.732L122.762 58.9825ZM100.573 72.356L100.948 74.3204L100.95 74.3202L100.573 72.356ZM93.8188 71.1827L92.1041 72.2124L92.1042 72.2125L93.8188 71.1827ZM92.084 68.2938L92.8582 66.4497L87.2234 64.0848L90.3693 69.3235L92.084 68.2938ZM97.9455 68.4567L97.57 66.4924L97.5677 66.4928L97.9455 68.4567ZM120.556 54.8315L118.996 53.5807L118.995 53.5813L120.556 54.8315ZM122.965 50.5835L121.044 50.0278L121.041 50.0368L122.965 50.5835ZM123.159 49.5671L124.874 48.5385L121.743 43.318L121.167 49.378L123.159 49.5671ZM120.003 54.3888L118.442 53.1382L118.442 53.1385L120.003 54.3888ZM97.8138 67.7624L98.1891 69.7267L98.1902 69.7265L97.8138 67.7624ZM91.0602 66.5903L92.7744 65.5597L92.7742 65.5595L91.0602 66.5903ZM93.1892 60.0642L91.6284 58.8138L91.6278 58.8146L93.1892 60.0642ZM115.378 46.6907L115.003 44.7262L115.002 44.7265L115.378 46.6907ZM115.247 45.9975L114.872 44.0332C110.883 44.796 106.276 46.7102 101.87 49.3665L102.903 51.0792L103.935 52.7919C108.059 50.3058 112.221 48.6124 115.623 47.9619L115.247 45.9975ZM102.903 51.0792L101.87 49.3665C97.4653 52.0221 93.6167 55.2003 91.076 58.3715L92.6369 59.6218L94.1977 60.8722C96.3649 58.1673 99.8104 55.2787 103.935 52.7919L102.903 51.0792ZM92.6369 59.6218L91.0759 58.3717C89.7689 60.0033 88.8052 61.641 88.3351 63.216C87.8616 64.8028 87.8473 66.5015 88.7315 67.9794L90.4479 66.9525L92.1643 65.9256C92.034 65.7079 91.9005 65.2565 92.1682 64.3595C92.4394 63.4507 93.0775 62.2708 94.1979 60.872L92.6369 59.6218ZM90.4479 66.9525L88.7334 67.9827L91.493 72.5754L93.2075 71.5453L94.9219 70.5151L92.1623 65.9224L90.4479 66.9525ZM93.2075 71.5453L91.4925 72.5745C92.3806 74.0543 93.8872 74.8417 95.5129 75.1672C97.125 75.49 99.0232 75.4029 101.076 75.0087L100.699 73.0446L100.322 71.0806C98.5627 71.4185 97.2247 71.4306 96.2987 71.2452C95.3865 71.0626 95.0534 70.7342 94.9224 70.516L93.2075 71.5453ZM100.699 73.0446L101.074 75.009C105.062 74.2468 109.669 72.3315 114.076 69.6758L113.044 67.9629L112.011 66.2501C107.886 68.7363 103.724 70.4304 100.324 71.0802L100.699 73.0446ZM113.044 67.9629L114.076 69.6758C118.482 67.0203 122.329 63.8427 124.87 60.6705L123.309 59.4203L121.748 58.1701C119.581 60.8759 116.137 63.7636 112.011 66.2501L113.044 67.9629ZM123.309 59.4203L124.87 60.6707C126.206 59.004 127.184 57.3296 127.642 55.7191L125.718 55.1724L123.794 54.6257C123.535 55.5398 122.895 56.7387 121.749 58.1699L123.309 59.4203ZM125.718 55.1724L127.642 55.7191C128.085 54.163 128.077 52.5031 127.207 51.058L125.493 52.0892L123.78 53.1204C123.908 53.3337 124.038 53.7679 123.794 54.6257L125.718 55.1724ZM125.493 52.0892L127.208 51.0593L124.449 46.4656L122.734 47.4955L121.019 48.5254L123.779 53.1191L125.493 52.0892ZM122.734 47.4955L124.449 46.4661C123.561 44.9877 122.055 44.2024 120.431 43.8774C118.821 43.555 116.924 43.6409 114.872 44.0332L115.247 45.9975L115.623 47.9619C117.381 47.6256 118.719 47.614 119.646 47.7995C120.559 47.9823 120.89 48.3103 121.019 48.5249L122.734 47.4955ZM124.892 52.4577L123.177 53.4875C123.181 53.4939 123.337 53.769 123.066 54.5983C122.803 55.4039 122.212 56.4714 121.201 57.7319L122.762 58.9825L124.323 60.233C125.51 58.7514 126.405 57.2588 126.869 55.8388C127.325 54.4424 127.446 52.8261 126.606 51.4279L124.892 52.4577ZM122.762 58.9825L121.201 57.732C119.085 60.3731 115.708 63.2043 111.651 65.6491L112.683 67.362L113.715 69.0749C118.051 66.462 121.832 63.3413 124.323 60.2329L122.762 58.9825ZM112.683 67.362L111.651 65.6491C107.594 68.0938 103.514 69.7556 100.197 70.3919L100.573 72.356L100.95 74.3202C104.855 73.5711 109.379 71.6878 113.715 69.0749L112.683 67.362ZM100.573 72.356L100.198 70.3917C98.6127 70.6946 97.3945 70.7176 96.5616 70.5729C95.7046 70.424 95.5367 70.1583 95.5335 70.1529L93.8188 71.1827L92.1042 72.2125C92.9446 73.6118 94.4294 74.2623 95.8765 74.5137C97.3476 74.7693 99.0847 74.6766 100.948 74.3204L100.573 72.356ZM93.8188 71.1827L95.5336 70.153L93.7987 67.2641L92.084 68.2938L90.3693 69.3235L92.1041 72.2124L93.8188 71.1827ZM92.084 68.2938L91.3098 70.1379C93.2117 70.9361 95.6717 70.931 98.3233 70.4206L97.9455 68.4567L97.5677 66.4928C95.2346 66.9419 93.6979 66.8021 92.8582 66.4497L92.084 68.2938ZM97.9455 68.4567L98.321 70.4211C102.31 69.6582 106.916 67.7426 111.322 65.0869L110.29 63.3741L109.258 61.6612C105.132 64.1475 100.971 65.8419 97.57 66.4924L97.9455 68.4567ZM110.29 63.3741L111.322 65.0869C115.729 62.4314 119.576 59.2539 122.117 56.0816L120.556 54.8315L118.995 53.5813C116.828 56.287 113.384 59.1748 109.258 61.6612L110.29 63.3741ZM120.556 54.8315L122.117 56.0822C123.452 54.416 124.431 52.7406 124.889 51.1303L122.965 50.5835L121.041 50.0368C120.781 50.9511 120.142 52.151 118.996 53.5807L120.556 54.8315ZM122.965 50.5835L124.886 51.1393C125.017 50.6874 125.105 50.2244 125.15 49.7561L123.159 49.5671L121.167 49.378C121.147 49.598 121.105 49.8156 121.044 50.0278L122.965 50.5835ZM123.159 49.5671L121.443 50.5956L123.176 53.4862L124.892 52.4577L126.607 51.4291L124.874 48.5385L123.159 49.5671ZM122.133 47.864L120.418 48.8938C120.422 48.9002 120.577 49.1753 120.307 50.0046C120.044 50.8102 119.452 51.8777 118.442 53.1382L120.003 54.3888L121.564 55.6393C122.751 54.1577 123.646 52.6651 124.11 51.2451C124.565 49.8487 124.687 48.2324 123.847 46.8342L122.133 47.864ZM120.003 54.3888L118.442 53.1385C116.326 55.7803 112.949 58.6105 108.891 61.0554L109.924 62.7683L110.956 64.4812C115.292 61.8684 119.073 58.7486 121.564 55.639L120.003 54.3888ZM109.924 62.7683L108.891 61.0554C104.834 63.5002 100.756 65.1621 97.4375 65.7982L97.8138 67.7624L98.1902 69.7265C102.097 68.9777 106.62 67.094 110.956 64.4812L109.924 62.7683ZM97.8138 67.7624L97.4386 65.798C95.8533 66.1009 94.6352 66.124 93.8024 65.9794C92.9456 65.8307 92.7777 65.5651 92.7744 65.5597L91.0602 66.5903L89.346 67.6208C90.1867 69.0191 91.6711 69.6692 93.1179 69.9203C94.5887 70.1757 96.3254 70.0829 98.1891 69.7267L97.8138 67.7624ZM91.0602 66.5903L92.7742 65.5595C92.7712 65.5544 92.6345 65.3218 92.8374 64.6081L90.9135 64.0614L88.9897 63.5147C88.6167 64.8265 88.5636 66.3198 89.3462 67.6211L91.0602 66.5903ZM90.9135 64.0614L92.8374 64.6081C93.0687 63.7943 93.6661 62.6687 94.7506 61.3139L93.1892 60.0642L91.6278 58.8146C90.3621 60.3957 89.4209 61.998 88.9897 63.5147L90.9135 64.0614ZM93.1892 60.0642L94.75 61.3147C96.8662 58.6736 100.244 55.8424 104.301 53.3976L103.268 51.6847L102.236 49.9718C97.9003 52.5847 94.119 55.7054 91.6284 58.8138L93.1892 60.0642ZM103.268 51.6847L104.301 53.3976C108.357 50.9529 112.437 49.2911 115.755 48.6548L115.378 46.6907L115.002 44.7265C111.096 45.4756 106.572 47.3589 102.236 49.9718L103.268 51.6847ZM115.378 46.6907L115.753 48.6551C117.34 48.3524 118.558 48.3294 119.391 48.474C120.247 48.6228 120.415 48.8882 120.418 48.8938L122.133 47.864L123.847 46.8342C123.007 45.4351 121.523 44.7845 120.076 44.5332C118.605 44.2777 116.868 44.3704 115.003 44.7262L115.378 46.6907Z" fill="black" mask="url(#path-17-inside-4_53_71)"/>
<path d="M91.86 64.3662C92.142 63.3746 92.8264 62.1273 93.9564 60.7133L93.9555 60.713C96.028 58.1224 99.2157 55.4038 103.006 53.02L103.772 52.5473C107.64 50.2103 111.565 48.5506 114.894 47.8024L115.551 47.6654C117.206 47.3481 118.552 47.3072 119.543 47.4791C120.42 47.6312 120.91 47.9266 121.161 48.2352L121.254 48.3683C121.467 48.7235 121.553 49.3357 121.235 50.3091C120.961 51.1503 120.416 52.1562 119.577 53.2775L119.199 53.765L118.769 54.2856C116.698 56.7182 113.686 59.2344 110.149 61.4592L109.383 61.9319C105.515 64.2689 101.591 65.9278 98.2614 66.6758L97.6039 66.8138C95.95 67.1314 94.6029 67.172 93.6117 67.0001C92.7342 66.8479 92.2449 66.5525 91.9941 66.244L91.9007 66.1119C91.7029 65.782 91.6139 65.2317 91.86 64.3662Z" fill="#DC1667" stroke="black" stroke-width="2"/>
<path d="M94.1476 69.7565C95.3423 69.8389 96.6939 69.7268 98.1564 69.444L98.1573 69.4442C101.756 68.7523 105.929 67.0697 110.008 64.7043L110.822 64.2221C115.156 61.6034 118.9 58.4923 121.347 55.4323L121.348 55.4325C122.284 54.2629 123.011 53.1197 123.496 52.0308L124.043 52.9425C124.255 53.2975 124.34 53.9093 124.023 54.8822C123.749 55.7231 123.204 56.7285 122.365 57.8496L121.988 58.3373C119.916 60.9273 116.73 63.6463 112.942 66.0295L112.176 66.5013C108.052 68.9933 103.864 70.7143 100.402 71.3818C98.7492 71.6994 97.4028 71.7414 96.4119 71.5695C95.5345 71.4173 95.0451 71.121 94.7946 70.8125L94.7015 70.6794L94.1476 69.7565Z" fill="#DC1667" stroke="black" stroke-width="2"/>
</svg>
