<?xml version="1.0" encoding="UTF-8" standalone="no"?>
<!DOCTYPE svg PUBLIC "-//W3C//DTD SVG 1.1//EN" "http://www.w3.org/Graphics/SVG/1.1/DTD/svg11.dtd">
<svg width="100%" height="100%" viewBox="0 0 663 180" version="1.1" xmlns="http://www.w3.org/2000/svg" xmlns:xlink="http://www.w3.org/1999/xlink" xml:space="preserve" xmlns:serif="http://www.serif.com/" style="fill-rule:evenodd;clip-rule:evenodd;stroke-linejoin:round;stroke-miterlimit:1.5;">
    <g transform="matrix(1,0,0,1,-671.951,-512.866)">
        <g>
            <g transform="matrix(1,0,0,1,989.917,676.625)">
                <g transform="matrix(1,0,0,1,-568.613,-220.461)">
                    <path d="M607.811,183.862L589.802,183.862L589.802,196.442L607.811,196.442L607.811,183.862ZM643.57,183.862L625.561,183.862L625.561,196.442L643.57,196.442L643.57,183.862Z" style="fill:rgb(237,133,176);stroke:black;stroke-width:3.5px;"/>
                </g>
                <g transform="matrix(1.0083,0,0,1.0083,-377.326,-326.193)">
                    <rect x="385.545" y="295.542" width="72.702" height="41.4" style="fill:rgb(220,22,103);stroke:black;stroke-width:3.47px;"/>
                </g>
            </g>
            <g transform="matrix(1,0,0,1,1211.27,676.625)">
                <g transform="matrix(1,0,0,1,-568.613,-220.461)">
                    <path d="M607.811,183.862L589.802,183.862L589.802,196.442L607.811,196.442L607.811,183.862ZM643.57,183.862L625.561,183.862L625.561,196.442L643.57,196.442L643.57,183.862Z" style="fill:rgb(142,212,198);stroke:black;stroke-width:3.5px;"/>
                </g>
                <g transform="matrix(1.0083,0,0,1.0083,-377.326,-326.193)">
                    <rect x="385.545" y="295.542" width="72.702" height="41.4" style="fill:rgb(29,169,141);stroke:black;stroke-width:3.47px;"/>
                </g>
            </g>
            <g transform="matrix(1,0,0,1,1063.7,676.625)">
                <g transform="matrix(1,0,0,1,-568.613,-220.461)">
                    <path d="M607.811,183.862L589.802,183.862L589.802,196.442L607.811,196.442L607.811,183.862ZM643.57,183.862L625.561,183.862L625.561,196.442L643.57,196.442L643.57,183.862Z" style="fill:rgb(128,43,255);stroke:black;stroke-width:3.5px;"/>
                </g>
                <g transform="matrix(1.0083,0,0,1.0083,-377.326,-326.193)">
                    <rect x="385.545" y="295.542" width="72.702" height="41.4" style="fill:rgb(128,43,255);stroke:black;stroke-width:3.47px;"/>
                </g>
            </g>
            <g transform="matrix(1,0,0,1,1137.49,676.625)">
                <g transform="matrix(1,0,0,1,-568.613,-220.461)">
                    <path d="M607.811,183.862L589.802,183.862L589.802,196.442L607.811,196.442L607.811,183.862ZM643.57,183.862L625.561,183.862L625.561,196.442L643.57,196.442L643.57,183.862Z" style="fill:rgb(255,222,144);stroke:black;stroke-width:3.5px;"/>
                </g>
                <g transform="matrix(1.0083,0,0,1.0083,-377.326,-326.193)">
                    <rect x="385.545" y="295.542" width="72.702" height="41.4" style="fill:rgb(255,192,43);stroke:black;stroke-width:3.47px;"/>
                </g>
            </g>
            <g transform="matrix(1,0,0,1,1026.64,634.785)">
                <g transform="matrix(1,0,0,1,-568.613,-220.461)">
                    <path d="M607.811,183.862L589.802,183.862L589.802,196.442L607.811,196.442L607.811,183.862ZM643.57,183.862L625.561,183.862L625.561,196.442L643.57,196.442L643.57,183.862Z" style="fill:rgb(255,222,144);stroke:black;stroke-width:3.5px;"/>
                </g>
                <g transform="matrix(1.0083,0,0,1.0083,-377.326,-326.193)">
                    <rect x="385.545" y="295.542" width="72.702" height="41.4" style="fill:rgb(255,192,43);stroke:black;stroke-width:3.47px;"/>
                </g>
            </g>
            <g transform="matrix(1,0,0,1,1248,634.785)">
                <g transform="matrix(1,0,0,1,-568.613,-220.461)">
                    <path d="M607.811,183.862L589.802,183.862L589.802,196.442L607.811,196.442L607.811,183.862ZM643.57,183.862L625.561,183.862L625.561,196.442L643.57,196.442L643.57,183.862Z" style="fill:rgb(221,197,255);stroke:black;stroke-width:3.5px;"/>
                </g>
                <g transform="matrix(1.0083,0,0,1.0083,-377.326,-326.193)">
                    <rect x="385.545" y="295.542" width="72.702" height="41.4" style="fill:rgb(128,43,255);stroke:black;stroke-width:3.47px;"/>
                </g>
            </g>
            <g transform="matrix(1,0,0,1,1100.43,634.785)">
                <g transform="matrix(1,0,0,1,-568.613,-220.461)">
                    <path d="M607.811,183.862L589.802,183.862L589.802,196.442L607.811,196.442L607.811,183.862ZM643.57,183.862L625.561,183.862L625.561,196.442L643.57,196.442L643.57,183.862Z" style="fill:rgb(237,133,176);stroke:black;stroke-width:3.5px;"/>
                </g>
                <g transform="matrix(1.0083,0,0,1.0083,-377.326,-326.193)">
                    <rect x="385.545" y="295.542" width="72.702" height="41.4" style="fill:rgb(220,22,103);stroke:black;stroke-width:3.47px;"/>
                </g>
            </g>
            <g transform="matrix(1,0,0,1,1064.01,592.966)">
                <g transform="matrix(1,0,0,1,-568.613,-220.461)">
                    <path d="M607.811,183.862L589.802,183.862L589.802,196.442L607.811,196.442L607.811,183.862ZM643.57,183.862L625.561,183.862L625.561,196.442L643.57,196.442L643.57,183.862Z" style="fill:rgb(142,212,198);stroke:black;stroke-width:3.5px;"/>
                </g>
                <g transform="matrix(1.0083,0,0,1.0083,-377.326,-326.193)">
                    <rect x="385.545" y="295.542" width="72.702" height="41.4" style="fill:rgb(29,169,141);stroke:black;stroke-width:3.47px;"/>
                </g>
            </g>
            <g transform="matrix(1,0,0,1,1211.59,592.966)">
                <g transform="matrix(1,0,0,1,-568.613,-220.461)">
                    <path d="M607.811,183.862L589.802,183.862L589.802,196.442L607.811,196.442L607.811,183.862ZM643.57,183.862L625.561,183.862L625.561,196.442L643.57,196.442L643.57,183.862Z" style="fill:rgb(255,222,144);stroke:black;stroke-width:3.5px;"/>
                </g>
                <g transform="matrix(1.0083,0,0,1.0083,-377.326,-326.193)">
                    <rect x="385.545" y="295.542" width="72.702" height="41.4" style="fill:rgb(255,192,43);stroke:black;stroke-width:3.47px;"/>
                </g>
            </g>
            <g transform="matrix(1,0,0,1,1100.53,551.215)">
                <g transform="matrix(1,0,0,1,-568.613,-220.461)">
                    <path d="M607.811,183.862L589.802,183.862L589.802,196.442L607.811,196.442L607.811,183.862ZM643.57,183.862L625.561,183.862L625.561,196.442L643.57,196.442L643.57,183.862Z" style="fill:rgb(221,197,255);stroke:black;stroke-width:3.5px;"/>
                </g>
                <g transform="matrix(1.0083,0,0,1.0083,-377.326,-326.193)">
                    <rect x="385.545" y="295.542" width="72.702" height="41.4" style="fill:rgb(128,43,255);stroke:black;stroke-width:3.47px;"/>
                </g>
            </g>
            <g transform="matrix(1,0,0,1,1174.32,551.215)">
                <g transform="matrix(1,0,0,1,-568.613,-220.461)">
                    <path d="M607.811,183.862L589.802,183.862L589.802,196.442L607.811,196.442L607.811,183.862ZM643.57,183.862L625.561,183.862L625.561,196.442L643.57,196.442L643.57,183.862Z" style="fill:rgb(237,133,176);stroke:black;stroke-width:3.5px;"/>
                </g>
                <g transform="matrix(1.0083,0,0,1.0083,-377.326,-326.193)">
                    <rect x="385.545" y="295.542" width="72.702" height="41.4" style="fill:rgb(220,22,103);stroke:black;stroke-width:3.47px;"/>
                </g>
            </g>
            <g transform="matrix(0.938161,0,0,0.938161,601.888,187.956)">
                <path d="M83.283,431.759C81.254,431.714 79.622,431.384 78.386,430.77C77.151,430.156 76.225,429.144 75.607,427.734C74.989,426.324 74.681,424.437 74.681,422.072L74.681,393.216C74.681,390.805 75.364,388.838 76.732,387.315C78.1,385.791 79.908,385.029 82.158,385.029C84.805,385.029 86.757,385.53 88.014,386.53C89.272,387.531 89.9,389.555 89.9,392.602L89.9,419.957L101.216,419.957C103.774,419.957 105.572,420.344 106.609,421.117C107.645,421.89 108.164,423.482 108.164,425.892C108.164,428.348 107.568,429.94 106.377,430.668C105.186,431.395 103.245,431.759 100.554,431.759L83.283,431.759Z" style="fill-rule:nonzero;"/>
                <path d="M136.949,404.062C139.287,404.062 140.93,404.449 141.878,405.222C142.827,405.995 143.301,407.314 143.301,409.179C143.301,410.725 142.739,411.828 141.614,412.487C140.489,413.147 138.735,413.477 136.353,413.477L125.633,413.477L125.633,420.708L139.992,420.776C142.463,420.776 144.238,421.151 145.319,421.902C146.4,422.652 146.941,423.982 146.941,425.892C146.941,428.075 146.312,429.599 145.055,430.463C143.797,431.327 141.889,431.759 139.331,431.759L117.891,431.759C115.288,431.759 113.38,431.043 112.167,429.61C110.954,428.178 110.347,425.642 110.347,422.004L110.347,393.216C110.347,387.758 112.862,385.029 117.891,385.029L139.331,385.029C141.889,385.029 143.797,385.439 145.055,386.257C146.312,387.076 146.941,388.554 146.941,390.692C146.941,392.693 146.4,394.091 145.319,394.887C144.238,395.683 142.463,396.081 139.992,396.081L125.567,396.081L125.567,404.062L136.949,404.062Z" style="fill-rule:nonzero;"/>
                <path d="M177.777,421.526C177.777,424.119 177.468,426.177 176.85,427.7C176.233,429.224 175.383,430.281 174.303,430.872C173.222,431.464 171.799,431.759 170.035,431.759C167.432,431.759 165.546,431.043 164.377,429.61C163.208,428.178 162.601,425.642 162.557,422.004L162.425,396.831L156.8,396.831C154.021,396.831 151.937,396.376 150.547,395.467C149.157,394.557 148.462,392.943 148.462,390.623C148.462,389.213 148.738,388.099 149.29,387.281C149.841,386.462 150.668,385.882 151.771,385.541C152.874,385.2 154.352,385.029 156.205,385.029L184.526,385.029C186.997,385.029 188.783,385.484 189.886,386.394C190.989,387.303 191.54,388.872 191.54,391.101C191.54,392.602 191.221,393.773 190.581,394.614C189.941,395.455 189.092,396.035 188.033,396.354C186.975,396.672 185.607,396.831 183.931,396.831L177.777,396.831L177.777,421.526Z" style="fill-rule:nonzero;"/>
                <path d="M192.467,391.033C192.467,389.486 193.084,388.236 194.32,387.281C195.555,386.326 197.319,385.848 199.613,385.848C201.113,385.848 202.437,386.03 203.584,386.394C204.731,386.758 205.701,387.44 206.495,388.44C207.289,389.441 207.686,390.737 207.686,392.329C207.686,393.602 207.51,394.819 207.157,395.978C206.804,397.138 206.33,398.173 205.734,399.082C205.139,399.992 204.455,400.833 203.683,401.607C202.911,402.38 202.106,403.039 201.268,403.585C200.43,404.131 199.591,404.597 198.753,404.983C197.915,405.37 197.121,405.654 196.371,405.836C195.621,406.018 194.959,406.109 194.386,406.109C193.592,406.109 192.963,405.87 192.5,405.393C192.037,404.915 191.805,404.313 191.805,403.585C191.805,402.584 192.136,401.925 192.798,401.607C194.783,400.606 196.239,399.753 197.165,399.048C198.091,398.343 198.908,397.4 199.613,396.217C197.54,396.217 195.831,395.808 194.485,394.989C193.14,394.171 192.467,392.852 192.467,391.033Z" style="fill-rule:nonzero;"/>
                <path d="M228.398,384.552C233.648,384.552 238.126,385.666 241.831,387.895C245.537,390.123 247.39,392.488 247.39,394.989C247.39,395.672 247.246,396.251 246.96,396.729C246.673,397.206 246.32,397.548 245.901,397.752C245.482,397.957 245.03,398.059 244.544,398.059C243.75,398.059 242.559,397.638 240.971,396.797C239.383,395.956 237.618,395.114 235.677,394.273C233.736,393.432 231.95,393.011 230.317,393.011C227.714,393.011 226.413,394.102 226.413,396.285C226.413,396.968 226.623,397.616 227.042,398.23C227.461,398.844 228.134,399.48 229.06,400.14C229.986,400.799 230.891,401.379 231.773,401.879C232.655,402.38 233.868,403.05 235.413,403.892C236.957,404.733 238.258,405.472 239.317,406.109C242.713,408.11 245.096,410.02 246.463,411.839C247.831,413.658 248.515,415.751 248.515,418.115C248.515,427.53 242.361,432.237 230.053,432.237C227.626,432.237 225.277,431.987 223.005,431.486C220.733,430.986 218.748,430.327 217.05,429.508C215.351,428.689 213.851,427.78 212.55,426.779C211.249,425.779 210.267,424.755 209.605,423.709C208.944,422.663 208.613,421.686 208.613,420.776C208.613,419.775 208.933,418.923 209.572,418.218C210.212,417.513 211.149,417.16 212.385,417.16C213.311,417.16 215.539,417.763 219.068,418.968C222.597,420.173 225.443,420.776 227.604,420.776C229.589,420.776 230.582,420.071 230.582,418.661C230.582,418.252 230.505,417.877 230.35,417.536C230.196,417.194 229.931,416.853 229.556,416.512C229.181,416.171 228.762,415.853 228.299,415.557C227.836,415.262 227.196,414.886 226.38,414.432C225.564,413.977 224.748,413.522 223.932,413.067C223.116,412.612 222.046,412.021 220.722,411.294C219.399,410.566 218.12,409.838 216.884,409.111C215.252,408.156 213.851,406.973 212.682,405.563C211.513,404.153 210.664,402.755 210.135,401.368C209.605,399.981 209.341,398.696 209.341,397.513C209.341,393.693 210.995,390.578 214.304,388.167C217.612,385.757 222.31,384.552 228.398,384.552Z" style="fill-rule:nonzero;"/>
                <path d="M288.946,398.196C288.946,396.285 288.229,394.978 286.795,394.273C285.361,393.568 282.968,393.216 279.615,393.216L279.615,403.653C281.689,403.653 283.376,403.494 284.678,403.176C285.979,402.857 287.016,402.3 287.788,401.504C288.56,400.708 288.946,399.605 288.946,398.196ZM289.806,416.41C289.806,414.909 289.431,413.749 288.681,412.931C287.931,412.112 286.85,411.532 285.439,411.191C284.027,410.85 282.086,410.68 279.615,410.68L279.615,422.481C283.056,422.481 285.615,422.038 287.291,421.151C288.968,420.264 289.806,418.684 289.806,416.41ZM297.945,407.473C302.048,409.975 304.099,413.317 304.099,417.501C304.099,419.321 303.757,421.06 303.073,422.72C302.39,424.38 301.375,425.892 300.029,427.257C298.684,428.621 296.908,429.701 294.703,430.497C292.497,431.293 290.004,431.691 287.225,431.691L271.873,431.691C269.182,431.691 267.252,430.986 266.083,429.576C264.914,428.166 264.33,425.642 264.33,422.004L264.33,393.147C264.33,391.601 264.594,390.237 265.124,389.054C265.653,387.872 266.502,386.917 267.671,386.189C268.84,385.461 270.241,385.098 271.873,385.098L287.027,385.098C291.438,385.143 295.111,386.382 298.044,388.816C300.978,391.249 302.445,394.375 302.445,398.196C302.445,399.424 302.346,400.504 302.147,401.436C301.948,402.368 301.651,403.198 301.254,403.926C300.857,404.654 300.393,405.29 299.864,405.836C299.335,406.382 298.695,406.928 297.945,407.473Z" style="fill-rule:nonzero;"/>
                <path d="M332.355,398.605C332.355,396.422 331.583,394.921 330.038,394.102C328.494,393.284 325.892,392.875 322.23,392.875L322.23,404.676C325.671,404.676 328.219,404.233 329.873,403.346C331.527,402.459 332.355,400.879 332.355,398.605ZM322.23,421.526C322.23,428.348 319.649,431.759 314.488,431.759C311.885,431.759 309.977,431.043 308.764,429.61C307.551,428.178 306.944,425.642 306.944,422.004L306.944,393.216C306.944,390.578 307.639,388.565 309.029,387.178C310.418,385.791 312.238,385.098 314.488,385.098L328.384,385.098C333.81,385.098 338.2,386.405 341.552,389.02C344.905,391.635 346.582,394.989 346.582,399.082C346.582,402.175 345.953,404.597 344.696,406.348C343.438,408.099 341.42,409.383 338.641,410.202C340.758,410.338 342.721,411.396 344.53,413.374C346.339,415.353 347.243,417.82 347.243,420.776C347.243,423.778 346.968,426.086 346.416,427.7C345.865,429.315 345.082,430.395 344.067,430.941C343.052,431.486 341.619,431.759 339.766,431.759C337.163,431.759 335.255,431.202 334.042,430.088C332.829,428.974 332.222,427.279 332.222,425.005C332.222,422.186 331.957,420.014 331.428,418.491C330.899,416.967 330.215,415.978 329.377,415.523C328.539,415.068 327.37,414.841 325.87,414.841L322.23,414.909L322.23,421.526Z" style="fill-rule:nonzero;"/>
                <path d="M365.441,421.526C365.441,425.074 364.801,427.666 363.522,429.303C362.242,430.941 360.301,431.759 357.698,431.759C355.14,431.759 353.254,431.054 352.041,429.644C350.828,428.235 350.221,425.71 350.221,422.072L350.221,393.216C350.221,387.758 352.713,385.029 357.698,385.029C360.257,385.029 362.187,385.53 363.488,386.53C364.79,387.531 365.441,389.555 365.441,392.602L365.441,421.526Z" style="fill-rule:nonzero;"/>
                <path d="M395.946,397.854C395.946,396.899 395.56,396.081 394.788,395.399C394.016,394.716 393.1,394.375 392.042,394.375C389.924,394.375 388.182,395.615 386.814,398.093C385.447,400.572 384.763,403.38 384.763,406.518C384.763,408.929 385.204,411.1 386.086,413.033C386.968,414.966 388.248,416.501 389.924,417.638C391.601,418.775 393.542,419.343 395.747,419.343C397.38,419.343 398.946,419.014 400.446,418.354C401.945,417.695 403.159,416.967 404.085,416.171C405.011,415.375 405.971,414.648 406.963,413.988C407.956,413.329 408.827,412.999 409.577,412.999C410.548,412.999 411.386,413.397 412.092,414.193C412.798,414.989 413.151,415.819 413.151,416.683C413.151,417.638 412.875,418.752 412.323,420.026C411.772,421.299 410.901,422.652 409.71,424.085C408.519,425.517 407.129,426.836 405.541,428.041C403.953,429.246 401.979,430.247 399.618,431.043C397.258,431.839 394.777,432.237 392.174,432.237C388.733,432.237 385.546,431.702 382.612,430.634C379.679,429.565 377.131,428.041 374.969,426.063C372.808,424.085 371.109,421.595 369.874,418.593C368.639,415.591 368.021,412.226 368.021,408.497C368.021,401.129 370.161,395.308 374.44,391.033C378.719,386.758 384.322,384.62 391.248,384.62C394.777,384.62 398.041,385.234 401.041,386.462C404.041,387.69 406.423,389.395 408.188,391.578C409.952,393.761 410.835,396.149 410.835,398.741C410.835,401.743 409.864,404.46 407.923,406.893C405.982,409.327 403.467,410.543 400.379,410.543C398.615,410.543 397.027,410.043 395.615,409.042C394.203,408.042 393.497,406.609 393.497,404.745C393.497,403.88 393.906,402.675 394.722,401.129C395.538,399.583 395.946,398.491 395.946,397.854Z" style="fill-rule:nonzero;"/>
                <path d="M446.435,409.315C448.685,409.588 450.736,410.759 452.589,412.828C454.442,414.898 455.368,417.547 455.368,420.776C455.368,423.914 455.148,426.245 454.707,427.768C454.265,429.292 453.515,430.338 452.457,430.906C451.398,431.475 449.788,431.759 447.626,431.759C445.906,431.759 444.483,431.509 443.358,431.009C442.233,430.508 441.406,429.769 440.877,428.792C440.347,427.814 440.083,426.552 440.083,425.005C440.083,423.004 440.005,421.333 439.851,419.991C439.697,418.65 439.498,417.581 439.255,416.785C439.013,415.989 438.649,415.387 438.164,414.977C437.678,414.568 437.204,414.307 436.741,414.193C436.278,414.079 435.649,414.022 434.855,414.022L431.348,414.022L431.348,421.595C431.348,425.233 430.664,427.837 429.297,429.406C427.929,430.975 425.922,431.759 423.275,431.759C420.716,431.759 418.83,431.02 417.617,429.542C416.404,428.064 415.797,425.574 415.797,422.072L415.797,393.625C415.797,390.76 416.316,388.611 417.352,387.178C418.389,385.746 420.077,385.029 422.415,385.029C423.782,385.029 424.918,385.12 425.822,385.302C426.727,385.484 427.609,385.814 428.469,386.291C429.33,386.769 429.969,387.519 430.388,388.543C430.807,389.566 431.017,390.873 431.017,392.465C431.017,393.875 431.006,395.455 430.984,397.206C430.962,398.957 430.951,400.197 430.951,400.924C430.951,401.516 431.094,402.016 431.381,402.425C431.668,402.834 432.109,403.164 432.704,403.414C433.3,403.664 434.039,403.79 434.921,403.79C436.818,403.79 438.086,403.016 438.726,401.47C439.366,399.924 439.686,396.763 439.686,391.988C439.686,389.623 440.303,387.872 441.538,386.735C442.774,385.598 444.759,385.029 447.494,385.029C450.45,385.029 452.435,385.621 453.449,386.803C454.464,387.986 454.971,390.1 454.971,393.147C454.971,398.15 454.122,402.027 452.424,404.779C450.725,407.53 448.729,409.042 446.435,409.315Z" style="fill-rule:nonzero;"/>
            </g>
            <g transform="matrix(1,0,0,1,480.947,-63.76)">
                <g transform="matrix(1,0,0,1,-3.36913,0)">
                    <path d="M242.36,713.967C242.36,717.295 241.741,719.727 240.504,721.263C239.267,722.799 237.389,723.567 234.872,723.567C232.397,723.567 230.573,722.906 229.4,721.583C228.227,720.261 227.64,717.893 227.64,714.479L227.64,687.407C227.64,682.287 230.051,679.727 234.872,679.727C237.347,679.727 239.213,680.197 240.472,681.135C241.731,682.074 242.36,683.973 242.36,686.831L242.36,713.967Z" style="fill-rule:nonzero;"/>
                </g>
                <path d="M269.944,713.967C269.944,716.399 269.645,718.33 269.048,719.759C268.451,721.189 267.629,722.181 266.584,722.735C265.539,723.29 264.163,723.567 262.456,723.567C259.939,723.567 258.115,722.895 256.984,721.551C255.853,720.207 255.267,717.829 255.224,714.415L255.096,690.799L249.656,690.799C246.968,690.799 244.952,690.373 243.608,689.519C242.264,688.666 241.592,687.151 241.592,684.975C241.592,683.653 241.859,682.607 242.392,681.839C242.925,681.071 243.725,680.527 244.792,680.207C245.859,679.887 247.288,679.727 249.08,679.727L276.472,679.727C278.861,679.727 280.589,680.154 281.656,681.007C282.723,681.861 283.256,683.333 283.256,685.423C283.256,686.831 282.947,687.93 282.328,688.719C281.709,689.509 280.888,690.053 279.864,690.351C278.84,690.65 277.517,690.799 275.896,690.799L269.944,690.799L269.944,713.967Z" style="fill-rule:nonzero;"/>
                <path d="M312.696,714.863C313.805,714.863 314.776,714.746 315.608,714.511C316.44,714.277 317.229,713.85 317.976,713.231C318.723,712.613 319.331,711.791 319.8,710.767C320.269,709.743 320.643,708.431 320.92,706.831C321.197,705.231 321.336,703.343 321.336,701.167C321.336,698.735 321.123,696.677 320.696,694.991C320.269,693.306 319.651,692.026 318.84,691.151C318.029,690.277 317.144,689.658 316.184,689.295C315.224,688.933 314.061,688.73 312.696,688.687L312.696,714.863ZM314.616,679.791C321.272,679.791 326.616,681.711 330.648,685.551C334.68,689.391 336.696,694.682 336.696,701.423C336.696,703.599 336.493,705.711 336.088,707.759C335.683,709.807 335.011,711.802 334.072,713.743C333.133,715.685 331.96,717.37 330.552,718.799C329.144,720.229 327.352,721.381 325.176,722.255C323,723.13 320.547,723.567 317.816,723.567L305.208,723.567C302.605,723.567 300.739,722.906 299.608,721.583C298.477,720.261 297.912,717.871 297.912,714.415L297.912,687.407C297.912,682.33 300.344,679.791 305.208,679.791L314.616,679.791Z" style="fill-rule:nonzero;"/>
                <path d="M359.8,714.607C361.251,714.607 362.499,713.967 363.544,712.687C364.589,711.407 365.336,709.829 365.784,707.951C366.232,706.074 366.456,704.069 366.456,701.935C366.456,699.759 366.221,697.701 365.752,695.759C365.283,693.818 364.525,692.165 363.48,690.799C362.435,689.434 361.208,688.751 359.8,688.751C358.435,688.751 357.24,689.434 356.216,690.799C355.192,692.165 354.424,693.829 353.912,695.791C353.4,697.754 353.144,699.802 353.144,701.935C353.144,704.069 353.389,706.074 353.88,707.951C354.371,709.829 355.139,711.407 356.184,712.687C357.229,713.967 358.435,714.607 359.8,714.607ZM371.128,721.423C367.757,723.109 363.971,723.951 359.768,723.951C355.565,723.951 351.789,723.109 348.44,721.423C345.091,719.738 342.413,717.21 340.408,713.839C338.403,710.469 337.4,706.501 337.4,701.935C337.4,695.023 339.48,689.53 343.64,685.455C347.8,681.381 353.187,679.343 359.8,679.343C366.413,679.343 371.811,681.381 375.992,685.455C380.173,689.53 382.264,695.023 382.264,701.935C382.264,706.501 381.251,710.469 379.224,713.839C377.197,717.21 374.499,719.738 371.128,721.423Z" style="fill-rule:nonzero;"/>
                <path d="M424.696,713.519C426.36,713.519 427.512,712.613 428.152,710.799C428.792,708.986 429.112,706.031 429.112,701.935L429.24,686.255C429.24,683.994 429.763,682.341 430.808,681.295C431.853,680.25 433.656,679.727 436.216,679.727C437.795,679.727 439.064,679.983 440.024,680.495C440.984,681.007 441.805,682.01 442.488,683.503C443.171,684.997 443.64,687.023 443.896,689.583C444.152,692.143 444.28,695.535 444.28,699.759C444.28,702.277 444.067,704.623 443.64,706.799C443.213,708.975 442.637,710.874 441.912,712.495C441.187,714.117 440.323,715.578 439.32,716.879C438.317,718.181 437.261,719.258 436.152,720.111C435.043,720.965 433.869,721.679 432.632,722.255C431.395,722.831 430.189,723.237 429.016,723.471C427.843,723.706 426.701,723.823 425.592,723.823C421.752,723.823 418.275,722.607 415.16,720.175C412.088,722.693 408.611,723.951 404.728,723.951C403.064,723.951 401.4,723.706 399.736,723.215C398.072,722.725 396.376,721.882 394.648,720.687C392.92,719.493 391.395,718.01 390.072,716.239C388.749,714.469 387.672,712.165 386.84,709.327C386.008,706.49 385.592,703.343 385.592,699.887C385.592,694.298 385.859,690.074 386.392,687.215C386.925,684.357 387.736,682.415 388.824,681.391C389.912,680.367 391.501,679.855 393.592,679.855C395.341,679.855 396.728,680.101 397.752,680.591C398.776,681.082 399.501,681.797 399.928,682.735C400.355,683.674 400.568,684.89 400.568,686.383L400.632,701.999C400.632,706.095 400.952,709.061 401.592,710.895C402.232,712.73 403.491,713.647 405.368,713.647C406.307,713.647 407.011,713.253 407.48,712.463C407.949,711.674 408.269,710.405 408.44,708.655C407.885,706.181 407.608,702.319 407.608,697.071C407.608,694.127 407.672,691.781 407.8,690.031C407.928,688.282 408.12,686.767 408.376,685.487C408.632,684.207 409.059,683.29 409.656,682.735C410.253,682.181 410.925,681.786 411.672,681.551C412.419,681.317 413.453,681.199 414.776,681.199C415.544,681.199 416.216,681.221 416.792,681.263C417.368,681.306 417.912,681.434 418.424,681.647C418.936,681.861 419.363,682.053 419.704,682.223C420.045,682.394 420.365,682.714 420.664,683.183C420.963,683.653 421.197,684.058 421.368,684.399C421.539,684.741 421.699,685.295 421.848,686.063C421.997,686.831 422.104,687.503 422.168,688.079C422.232,688.655 422.275,689.509 422.296,690.639C422.317,691.77 422.339,692.751 422.36,693.583C422.381,694.415 422.392,695.599 422.392,697.135C422.392,702.511 422.115,706.479 421.56,709.039C421.731,710.575 422.051,711.706 422.52,712.431C422.989,713.157 423.715,713.519 424.696,713.519Z" style="fill-rule:nonzero;"/>
                <path d="M488.056,717.487C488.056,719.365 487.501,720.847 486.392,721.935C485.283,723.023 483.661,723.567 481.528,723.567C480.973,723.567 480.419,723.503 479.864,723.375C479.309,723.247 478.723,723.013 478.104,722.671C477.485,722.33 476.941,722.01 476.472,721.711C476.003,721.413 475.416,720.954 474.712,720.335C474.008,719.717 473.453,719.226 473.048,718.863C472.643,718.501 472.013,717.914 471.16,717.103C470.307,716.293 469.688,715.695 469.304,715.311L457.592,704.239L457.592,718.127C457.592,720.218 457.197,721.647 456.408,722.415C455.619,723.183 454.371,723.567 452.664,723.567C450.787,723.567 449.4,723.141 448.504,722.287C447.608,721.434 447.16,720.005 447.16,717.999L447.16,687.087C447.16,684.655 447.779,682.821 449.016,681.583C450.253,680.346 452.024,679.727 454.328,679.727C455.907,679.727 457.176,679.973 458.136,680.463C459.096,680.954 460.237,681.839 461.56,683.119L477.752,699.247L477.752,685.295C477.752,683.461 478.211,682.085 479.128,681.167C480.045,680.25 481.293,679.791 482.872,679.791C484.707,679.791 486.029,680.218 486.84,681.071C487.651,681.925 488.056,683.311 488.056,685.231L488.056,717.487Z" style="fill-rule:nonzero;"/>
                <path d="M491.704,719.151C491.704,717.445 492.376,716.207 493.72,715.439C495.064,714.671 496.739,714.287 498.744,714.287C503.821,714.287 506.36,715.909 506.36,719.151C506.36,720.73 505.677,721.935 504.312,722.767C502.947,723.599 501.091,724.015 498.744,724.015C496.525,724.015 494.797,723.557 493.56,722.639C492.323,721.722 491.704,720.559 491.704,719.151ZM506.424,685.039C506.424,687.215 505.997,690.842 505.144,695.919C504.291,700.997 503.864,704.581 503.864,706.671C503.864,708.421 503.459,709.701 502.648,710.511C501.837,711.322 500.515,711.727 498.68,711.727C496.888,711.727 495.629,711.311 494.904,710.479C494.179,709.647 493.816,708.314 493.816,706.479C493.816,704.431 493.389,700.975 492.536,696.111C491.683,691.247 491.256,687.791 491.256,685.743C491.256,683.61 491.779,682.01 492.824,680.943C493.869,679.877 495.757,679.343 498.488,679.343C501.347,679.343 503.384,679.791 504.6,680.687C505.816,681.583 506.424,683.034 506.424,685.039Z" style="fill-rule:nonzero;"/>
            </g>
        </g>
    </g>
</svg>
